<svg width="34" height="34" viewBox="0 0 34 34" fill="none" xmlns="http://www.w3.org/2000/svg">
<path fill-rule="evenodd" clip-rule="evenodd" d="M10.203 24.7073C10.5274 24.7073 10.8518 24.7484 11.1691 24.8334C12.1268 25.0912 12.9584 25.7316 13.4514 26.5915C13.7715 27.1313 13.9486 27.7617 13.9543 28.4048C13.9543 29.3257 14.6938 30.0638 15.6033 30.0638H17.3783C18.2836 30.0638 19.0231 29.3299 19.0273 28.4247C19.0217 27.4245 19.4127 26.4739 20.1281 25.7585C20.8336 25.053 21.8196 24.6294 22.8056 24.6577C23.4516 24.6733 24.0735 24.8476 24.6218 25.1593C25.4108 25.6112 26.4181 25.342 26.8743 24.5628L27.8149 22.9946C28.0246 22.6333 28.0855 22.18 27.9736 21.7621C27.8631 21.3442 27.5854 20.9815 27.2114 20.7676C26.3359 20.2633 25.7112 19.4501 25.4519 18.4754C25.1955 17.5192 25.3358 16.4751 25.8358 15.6152C26.1617 15.0485 26.6391 14.5711 27.2114 14.2424C27.9793 13.7933 28.2484 12.7889 27.8022 12.0069C27.7838 11.9757 27.7668 11.9432 27.7526 11.9092L26.9224 10.4698C26.4705 9.68357 25.4647 9.41299 24.6756 9.86207C23.8228 10.3664 22.8084 10.5109 21.8338 10.2545C20.8605 10.0023 20.0445 9.38607 19.5359 8.51623C19.2101 7.97223 19.033 7.33898 19.0273 6.6944C19.0401 6.2099 18.8701 5.77498 18.5613 5.45623C18.2538 5.1389 17.8218 4.95898 17.3783 4.95898H15.6033C15.1641 4.95898 14.7533 5.1304 14.443 5.43923C14.1342 5.74948 13.9656 6.16173 13.9685 6.6009C13.9387 8.67207 12.2458 10.3395 10.1959 10.3395C9.53854 10.3324 8.90529 10.1553 8.35563 9.82665C7.58354 9.38748 6.57488 9.65807 6.12296 10.4443L5.16388 12.0211C4.72471 12.7832 4.99388 13.7905 5.77588 14.2452C6.93613 14.9167 7.66004 16.1691 7.66004 17.5121C7.66004 18.8551 6.93613 20.106 5.77304 20.7789C4.99529 21.2294 4.72613 22.231 5.17663 23.0102L6.07054 24.5515C6.29154 24.9496 6.65279 25.2372 7.07071 25.3547C7.48721 25.4709 7.94621 25.4213 8.32871 25.2088C8.89113 24.8787 9.54563 24.7073 10.203 24.7073ZM17.3783 32.1888H15.6033C13.5222 32.1888 11.8293 30.4972 11.8293 28.4162C11.8265 28.1597 11.7528 27.8934 11.6154 27.6625C11.393 27.2743 11.0331 26.9967 10.618 26.8862C10.2058 26.7757 9.75388 26.8366 9.38271 27.0519C8.49304 27.5478 7.44613 27.6682 6.48846 27.399C5.53221 27.1284 4.70629 26.4711 4.22179 25.5998L3.33638 24.0741C2.30079 22.2777 2.91704 19.9757 4.71054 18.9387C5.21913 18.6454 5.53504 18.0986 5.53504 17.5121C5.53504 16.9256 5.21913 16.3773 4.71054 16.0841C2.91563 15.0414 2.30079 12.7337 3.33496 10.9373L4.29546 9.36057C5.31688 7.58407 7.62604 6.9579 9.42663 7.99207C9.67171 8.13798 9.93804 8.21165 10.2086 8.21448C11.0912 8.21448 11.8293 7.48632 11.8435 6.59098C11.8378 5.60357 12.2274 4.65582 12.9371 3.9404C13.6497 3.2264 14.596 2.83398 15.6033 2.83398H17.3783C18.3927 2.83398 19.3787 3.25048 20.0856 3.9744C20.7911 4.70257 21.1807 5.70132 21.1509 6.71423C21.1538 6.94232 21.2288 7.20582 21.3648 7.43673C21.5901 7.81923 21.9457 8.0884 22.3678 8.1989C22.79 8.30373 23.232 8.24707 23.6074 8.02465C25.4208 6.98907 27.7285 7.60957 28.7641 9.40873L29.6467 10.9373C29.6693 10.9784 29.6892 11.0181 29.7062 11.0592C30.644 12.8314 30.0178 15.0627 28.2753 16.0812C28.0218 16.2272 27.8163 16.4312 27.6747 16.6777C27.4551 17.0587 27.3942 17.5121 27.5047 17.9286C27.618 18.3536 27.8886 18.7063 28.2697 18.9245C29.1296 19.4189 29.7713 20.2519 30.0278 21.2138C30.2842 22.1743 30.1439 23.217 29.6439 24.0769L28.7032 25.6437C27.6676 27.4231 25.3598 28.0393 23.5649 27.0023C23.3255 26.8649 23.0493 26.7898 22.7744 26.7828H22.7659C22.3565 26.7828 21.9358 26.957 21.6298 27.2616C21.3195 27.5718 21.1495 27.9855 21.1523 28.4247C21.1424 30.5058 19.4495 32.1888 17.3783 32.1888Z" fill="#636364"/>
<path fill-rule="evenodd" clip-rule="evenodd" d="M16.497 14.8389C15.0237 14.8389 13.8252 16.0388 13.8252 17.5121C13.8252 18.9854 15.0237 20.1825 16.497 20.1825C17.9703 20.1825 19.1688 18.9854 19.1688 17.5121C19.1688 16.0388 17.9703 14.8389 16.497 14.8389ZM16.497 22.3075C13.8521 22.3075 11.7002 20.157 11.7002 17.5121C11.7002 14.8672 13.8521 12.7139 16.497 12.7139C19.1419 12.7139 21.2938 14.8672 21.2938 17.5121C21.2938 20.157 19.1419 22.3075 16.497 22.3075Z" fill="#636364"/>
</svg>
