<svg width="34" height="34" viewBox="0 0 34 34" fill="none" xmlns="http://www.w3.org/2000/svg">
<path d="M17.2129 3.40039C14.481 3.40039 11.8105 4.21048 9.53908 5.72822C7.26763 7.24595 5.49725 9.40317 4.45181 11.9271C3.40638 14.451 3.13284 17.2282 3.6658 19.9076C4.19876 22.5869 5.51427 25.0481 7.44598 26.9798C9.3777 28.9115 11.8388 30.227 14.5182 30.76C17.1976 31.2929 19.9748 31.0194 22.4987 29.974C25.0226 28.9285 27.1798 27.1582 28.6976 24.8867C30.2153 22.6152 31.0254 19.9447 31.0254 17.2129C31.0212 13.5509 29.5646 10.0401 26.9752 7.45064C24.3857 4.8612 20.8749 3.40461 17.2129 3.40039ZM24.6876 8.23583L21.6584 11.2629C20.3779 10.2962 18.8173 9.77322 17.2129 9.77322C15.6085 9.77322 14.0478 10.2962 12.7674 11.2629L9.73821 8.23477C11.8385 6.49039 14.4828 5.5356 17.2131 5.53579C19.9433 5.53599 22.5875 6.49115 24.6876 8.23583ZM17.2129 22.5254C16.1622 22.5254 15.1351 22.2138 14.2614 21.6301C13.3878 21.0463 12.7069 20.2166 12.3048 19.2459C11.9027 18.2752 11.7975 17.207 12.0025 16.1765C12.2075 15.1459 12.7134 14.1994 13.4564 13.4564C14.1994 12.7134 15.146 12.2075 16.1765 12.0025C17.207 11.7975 18.2752 11.9027 19.2459 12.3048C20.2166 12.7069 21.0463 13.3878 21.6301 14.2614C22.2138 15.1351 22.5254 16.1622 22.5254 17.2129C22.5237 18.6213 21.9635 19.9716 20.9675 20.9675C19.9716 21.9635 18.6213 22.5237 17.2129 22.5254ZM8.23583 9.7382L11.2629 12.7674C10.2962 14.0478 9.77323 15.6085 9.77323 17.2129C9.77323 18.8173 10.2962 20.3779 11.2629 21.6584L8.23583 24.6876C6.49111 22.5875 5.53601 19.9432 5.53601 17.2129C5.53601 14.4826 6.49111 11.8383 8.23583 9.7382ZM9.73821 26.19L12.7674 23.1629C14.0478 24.1296 15.6085 24.6526 17.2129 24.6526C18.8173 24.6526 20.3779 24.1296 21.6584 23.1629L24.6876 26.1921C22.5872 27.9365 19.9428 28.8912 17.2125 28.8908C14.4822 28.8905 11.8381 27.935 9.73821 26.19ZM26.19 24.6876L23.1629 21.6584C24.1296 20.3779 24.6526 18.8173 24.6526 17.2129C24.6526 15.6085 24.1296 14.0478 23.1629 12.7674L26.1921 9.7382C27.9365 11.8386 28.8912 14.483 28.8908 17.2133C28.8905 19.9436 27.935 22.5877 26.19 24.6876Z" fill="#636364"/>
</svg>
