<svg width="20" height="20" viewBox="0 0 20 20" fill="none" xmlns="http://www.w3.org/2000/svg">
<path d="M0.625 5.21887H10.8013C11.082 6.35301 12.1079 7.19648 13.3276 7.19648C14.5472 7.19648 15.5732 6.35301 15.8539 5.21887H19.375C19.7202 5.21887 20 4.93902 20 4.59387C20 4.24871 19.7202 3.96887 19.375 3.96887H15.8538C15.5732 2.83473 14.5472 1.99121 13.3275 1.99121C12.1079 1.99121 11.0819 2.83473 10.8012 3.96887H0.625C0.279844 3.96887 0 4.24871 0 4.59387C0 4.93902 0.279844 5.21887 0.625 5.21887ZM13.3276 3.24121C14.0734 3.24121 14.6802 3.84801 14.6802 4.59383C14.6802 5.33969 14.0734 5.94648 13.3276 5.94648C12.5817 5.94648 11.9749 5.33969 11.9749 4.59383C11.9749 3.84801 12.5817 3.24121 13.3276 3.24121ZM0.625 10.6246H4.14617C4.42688 11.7588 5.45277 12.6023 6.67246 12.6023C7.89215 12.6023 8.91805 11.7588 9.19875 10.6246H19.375C19.7202 10.6246 20 10.3448 20 9.99965C20 9.65449 19.7202 9.37465 19.375 9.37465H9.19871C8.91801 8.24051 7.89211 7.39699 6.67242 7.39699C5.45273 7.39699 4.42684 8.24051 4.14613 9.37465H0.625C0.279844 9.37465 0 9.65449 0 9.99965C0 10.3448 0.279805 10.6246 0.625 10.6246ZM6.67242 8.64699C7.41828 8.64699 8.02508 9.25379 8.02508 9.99965C8.02508 10.7455 7.41828 11.3523 6.67242 11.3523C5.92656 11.3523 5.31977 10.7455 5.31977 9.99965C5.31977 9.25379 5.92656 8.64699 6.67242 8.64699ZM19.375 14.7804H15.8538C15.5731 13.6463 14.5472 12.8028 13.3275 12.8028C12.1079 12.8028 11.082 13.6463 10.8012 14.7804H0.625C0.279844 14.7804 0 15.0603 0 15.4054C0 15.7506 0.279844 16.0304 0.625 16.0304H10.8013C11.082 17.1646 12.1079 18.0081 13.3276 18.0081C14.5473 18.0081 15.5732 17.1646 15.8539 16.0304H19.375C19.7202 16.0304 20 15.7506 20 15.4054C20 15.0603 19.7202 14.7804 19.375 14.7804ZM13.3276 16.7581C12.5817 16.7581 11.9749 16.1513 11.9749 15.4054C11.9749 14.6596 12.5817 14.0528 13.3276 14.0528C14.0734 14.0528 14.6802 14.6596 14.6802 15.4054C14.6802 16.1513 14.0734 16.7581 13.3276 16.7581Z" fill="white"/>
</svg>
