<svg width="604" height="604" viewBox="0 0 604 604" fill="none" xmlns="http://www.w3.org/2000/svg">
<g clip-path="url(#clip0_8004_1126)">
<path d="M576.634 366.412C571.175 401.056 555.195 436.198 525.224 454.329C503.299 467.592 476.661 470.244 451.056 470.218C425.45 470.193 399.597 467.853 374.388 472.397C357.401 475.461 337.677 479.732 327.392 493.343C310.127 516.193 287.634 537.128 259.48 542.321C231.326 547.526 202.349 543.329 174.157 538.323C147.307 533.565 119.937 527.837 96.8314 513.355C73.7382 498.872 55.4325 473.792 56.3274 446.521C57.559 409.15 92.8645 379.189 93.1633 341.804C93.4747 303.985 59.0024 276.476 40.4597 243.513C19.7413 206.64 19.6669 158.97 40.2857 122.048C60.9045 85.1123 101.496 60.2064 143.715 58.5756C208.096 56.0978 263.684 102.721 326.586 116.718C353.945 122.807 382.361 122.595 409.869 127.963C462.448 138.198 510.612 169.53 541.342 213.464C572.071 257.387 585.005 313.437 576.634 366.412Z" fill="white" fill-opacity="0.2"/>
<path d="M323.586 338.834C307.602 338.834 294.599 325.811 294.599 309.807V74.8884C294.599 58.8824 307.603 45.8613 323.586 45.8613H558.177C574.161 45.8613 587.165 58.8839 587.165 74.8884V309.807C587.165 325.813 574.16 338.834 558.177 338.834H323.586Z" fill="white"/>
<path d="M573.05 74.8886V309.807C573.05 318.032 566.391 324.7 558.177 324.7H323.586C315.372 324.7 308.713 318.032 308.713 309.807V74.8886C308.713 66.663 315.372 59.9951 323.586 59.9951H558.177C566.391 59.9951 573.05 66.663 573.05 74.8886Z" fill="#E1E5FF"/>
<path d="M547.946 263.648V298.783C547.946 302.084 545.273 304.759 541.977 304.759H334.164C330.868 304.759 328.194 302.084 328.194 298.783V263.648C328.194 260.347 330.867 257.67 334.164 257.67H541.976C545.272 257.67 547.946 260.347 547.946 263.648Z" fill="#CCD2FF"/>
<path d="M552.408 258.763V293.897C552.408 297.198 549.736 299.876 546.438 299.876H338.627C335.33 299.876 332.658 297.2 332.658 293.897V258.763C332.658 255.462 335.33 252.786 338.627 252.786H546.439C549.734 252.786 552.408 255.462 552.408 258.763Z" fill="white"/>
<path d="M547.946 194.52V229.655C547.946 232.956 545.273 235.633 541.977 235.633H334.164C330.868 235.633 328.194 232.957 328.194 229.655V194.52C328.194 191.219 330.867 188.542 334.164 188.542H541.976C545.272 188.543 547.946 191.219 547.946 194.52Z" fill="#CCD2FF"/>
<path d="M552.408 189.636V224.771C552.408 228.072 549.736 230.748 546.438 230.748H338.627C335.33 230.748 332.658 228.072 332.658 224.771V189.636C332.658 186.335 335.33 183.658 338.627 183.658H546.439C549.734 183.658 552.408 186.334 552.408 189.636Z" fill="white"/>
<path d="M479.588 125.723C479.588 149.915 460.01 169.52 435.851 169.52C411.691 169.52 392.113 149.915 392.113 125.723C392.113 101.531 411.691 81.916 435.851 81.916C460.01 81.916 479.588 101.532 479.588 125.723Z" fill="#CCD2FF"/>
<path d="M484.671 120.789C484.671 144.982 465.093 164.586 440.934 164.586C416.774 164.586 397.196 144.982 397.196 120.789C397.196 96.597 416.774 76.9824 440.934 76.9824C465.093 76.9824 484.671 96.5984 484.671 120.789Z" fill="white"/>
<path d="M450.892 104.375C450.892 109.908 446.411 114.395 440.886 114.395C437.706 114.395 434.882 112.914 433.059 110.609C431.68 108.905 430.869 106.724 430.869 104.375C430.869 98.8424 435.35 94.3447 440.886 94.3447C441.942 94.3447 442.954 94.5119 443.91 94.8125C447.956 96.0935 450.892 99.9001 450.892 104.375Z" fill="#006BDF"/>
<path d="M446.1 101.06C446.1 106.604 441.62 111.09 436.094 111.09C435.038 111.09 434.015 110.923 433.059 110.611C431.68 108.907 430.869 106.726 430.869 104.377C430.869 98.8444 435.35 94.3467 440.886 94.3467C441.942 94.3467 442.954 94.5138 443.91 94.8144C445.277 96.5281 446.1 98.6983 446.1 101.06Z" fill="#007AFF"/>
<path d="M463.276 143.691H418.483C416.948 143.691 415.752 142.343 415.938 140.819C415.989 140.369 416.063 139.92 416.137 139.47C418.195 127.667 428.498 118.673 440.886 118.673C443.93 118.673 446.849 119.209 449.542 120.222C458.249 123.408 464.685 131.302 465.821 140.82C466.007 142.341 464.811 143.691 463.276 143.691Z" fill="#006BDF"/>
<path d="M455.942 139.468H416.138C418.196 127.665 428.499 118.671 440.886 118.671C443.93 118.671 446.849 119.207 449.542 120.22C454.382 124.218 457.713 130.013 458.499 136.596C458.674 138.132 457.476 139.468 455.942 139.468Z" fill="#007AFF"/>
<path d="M368.112 207.208C368.112 212.831 363.559 217.389 357.945 217.389C354.715 217.389 351.845 215.884 349.992 213.543C348.59 211.812 347.766 209.594 347.766 207.208C347.766 201.585 352.319 197.016 357.944 197.016C359.017 197.016 360.045 197.186 361.017 197.49C365.13 198.791 368.112 202.66 368.112 207.208Z" fill="#757BFF"/>
<path d="M363.243 203.837C363.243 209.471 358.69 214.029 353.076 214.029C352.003 214.029 350.964 213.859 349.992 213.543C348.59 211.812 347.766 209.594 347.766 207.208C347.766 201.585 352.319 197.016 357.944 197.016C359.017 197.016 360.045 197.186 361.017 197.49C362.407 199.232 363.243 201.437 363.243 203.837Z" fill="#8D95FF"/>
<path d="M402.036 207.208C402.036 212.831 397.483 217.389 391.869 217.389C388.639 217.389 385.769 215.884 383.916 213.543C382.514 211.812 381.689 209.594 381.689 207.208C381.689 201.585 386.243 197.016 391.868 197.016C392.941 197.016 393.969 197.186 394.941 197.49C399.054 198.791 402.036 202.66 402.036 207.208Z" fill="#757BFF"/>
<path d="M397.167 203.837C397.167 209.471 392.614 214.029 387 214.029C385.927 214.029 384.888 213.859 383.916 213.543C382.514 211.812 381.689 209.594 381.689 207.208C381.689 201.585 386.243 197.016 391.868 197.016C392.941 197.016 393.969 197.186 394.941 197.49C396.331 199.232 397.167 201.437 397.167 203.837Z" fill="#8D95FF"/>
<path d="M435.96 207.208C435.96 212.831 431.407 217.389 425.793 217.389C422.562 217.389 419.692 215.884 417.839 213.543C416.438 211.812 415.613 209.594 415.613 207.208C415.613 201.585 420.167 197.016 425.792 197.016C426.865 197.016 427.893 197.186 428.865 197.49C432.978 198.791 435.96 202.66 435.96 207.208Z" fill="#757BFF"/>
<path d="M431.091 203.837C431.091 209.471 426.538 214.029 420.924 214.029C419.851 214.029 418.812 213.859 417.839 213.543C416.438 211.812 415.613 209.594 415.613 207.208C415.613 201.585 420.167 197.016 425.792 197.016C426.865 197.016 427.893 197.186 428.865 197.49C430.255 199.232 431.091 201.437 431.091 203.837Z" fill="#8D95FF"/>
<path d="M469.884 207.208C469.884 212.831 465.331 217.389 459.717 217.389C456.486 217.389 453.616 215.884 451.763 213.543C450.362 211.812 449.537 209.594 449.537 207.208C449.537 201.585 454.09 197.016 459.715 197.016C460.788 197.016 461.817 197.186 462.789 197.49C466.902 198.791 469.884 202.66 469.884 207.208Z" fill="#757BFF"/>
<path d="M465.015 203.837C465.015 209.471 460.462 214.029 454.848 214.029C453.775 214.029 452.735 213.859 451.763 213.543C450.362 211.812 449.537 209.594 449.537 207.208C449.537 201.585 454.09 197.016 459.715 197.016C460.788 197.016 461.817 197.186 462.789 197.49C464.179 199.232 465.015 201.437 465.015 203.837Z" fill="#8D95FF"/>
<path d="M503.808 207.208C503.808 212.831 499.254 217.389 493.641 217.389C490.41 217.389 487.54 215.884 485.687 213.543C484.286 211.812 483.461 209.594 483.461 207.208C483.461 201.585 488.014 197.016 493.639 197.016C494.712 197.016 495.74 197.186 496.713 197.49C500.825 198.791 503.808 202.66 503.808 207.208Z" fill="#757BFF"/>
<path d="M498.939 203.837C498.939 209.471 494.385 214.029 488.772 214.029C487.699 214.029 486.659 213.859 485.687 213.543C484.286 211.812 483.461 209.594 483.461 207.208C483.461 201.585 488.014 197.016 493.639 197.016C494.712 197.016 495.74 197.186 496.713 197.49C498.103 199.232 498.939 201.437 498.939 203.837Z" fill="#8D95FF"/>
<path d="M368.112 276.334C368.112 281.957 363.559 286.515 357.945 286.515C354.715 286.515 351.845 285.01 349.992 282.669C348.59 280.938 347.766 278.72 347.766 276.334C347.766 270.711 352.319 266.142 357.944 266.142C359.017 266.142 360.045 266.312 361.017 266.616C365.13 267.917 368.112 271.787 368.112 276.334Z" fill="#757BFF"/>
<path d="M363.243 272.963C363.243 278.597 358.69 283.155 353.076 283.155C352.003 283.155 350.964 282.985 349.992 282.669C348.59 280.938 347.766 278.72 347.766 276.334C347.766 270.711 352.319 266.142 357.944 266.142C359.017 266.142 360.045 266.312 361.017 266.616C362.407 268.358 363.243 270.565 363.243 272.963Z" fill="#8D95FF"/>
<path d="M402.036 276.334C402.036 281.957 397.483 286.515 391.869 286.515C388.639 286.515 385.769 285.01 383.916 282.669C382.514 280.938 381.689 278.72 381.689 276.334C381.689 270.711 386.243 266.142 391.868 266.142C392.941 266.142 393.969 266.312 394.941 266.616C399.054 267.917 402.036 271.787 402.036 276.334Z" fill="#757BFF"/>
<path d="M397.167 272.963C397.167 278.597 392.614 283.155 387 283.155C385.927 283.155 384.888 282.985 383.916 282.669C382.514 280.938 381.689 278.72 381.689 276.334C381.689 270.711 386.243 266.142 391.868 266.142C392.941 266.142 393.969 266.312 394.941 266.616C396.331 268.358 397.167 270.565 397.167 272.963Z" fill="#8D95FF"/>
<path d="M435.96 276.334C435.96 281.957 431.407 286.515 425.793 286.515C422.562 286.515 419.692 285.01 417.839 282.669C416.438 280.938 415.613 278.72 415.613 276.334C415.613 270.711 420.167 266.142 425.792 266.142C426.865 266.142 427.893 266.312 428.865 266.616C432.978 267.917 435.96 271.787 435.96 276.334Z" fill="#757BFF"/>
<path d="M431.091 272.963C431.091 278.597 426.538 283.155 420.924 283.155C419.851 283.155 418.812 282.985 417.839 282.669C416.438 280.938 415.613 278.72 415.613 276.334C415.613 270.711 420.167 266.142 425.792 266.142C426.865 266.142 427.893 266.312 428.865 266.616C430.255 268.358 431.091 270.565 431.091 272.963Z" fill="#8D95FF"/>
<path d="M469.884 276.334C469.884 281.957 465.331 286.515 459.717 286.515C456.486 286.515 453.616 285.01 451.763 282.669C450.362 280.938 449.537 278.72 449.537 276.334C449.537 270.711 454.09 266.142 459.715 266.142C460.788 266.142 461.817 266.312 462.789 266.616C466.902 267.917 469.884 271.787 469.884 276.334Z" fill="#757BFF"/>
<path d="M465.015 272.963C465.015 278.597 460.462 283.155 454.848 283.155C453.775 283.155 452.735 282.985 451.763 282.669C450.362 280.938 449.537 278.72 449.537 276.334C449.537 270.711 454.09 266.142 459.715 266.142C460.788 266.142 461.817 266.312 462.789 266.616C464.179 268.358 465.015 270.565 465.015 272.963Z" fill="#8D95FF"/>
<path d="M503.808 276.334C503.808 281.957 499.254 286.515 493.641 286.515C490.41 286.515 487.54 285.01 485.687 282.669C484.286 280.938 483.461 278.72 483.461 276.334C483.461 270.711 488.014 266.142 493.639 266.142C494.712 266.142 495.74 266.312 496.713 266.616C500.825 267.917 503.808 271.787 503.808 276.334Z" fill="#757BFF"/>
<path d="M498.939 272.963C498.939 278.597 494.385 283.155 488.772 283.155C487.699 283.155 486.659 282.985 485.687 282.669C484.286 280.938 483.461 278.72 483.461 276.334C483.461 270.711 488.014 266.142 493.639 266.142C494.712 266.142 495.74 266.312 496.713 266.616C498.103 268.358 498.939 270.565 498.939 272.963Z" fill="#8D95FF"/>
<path d="M252.173 12.3677V78.2149C252.173 84.5583 247.037 89.7007 240.703 89.7007H159.296C152.962 89.7007 147.826 84.5583 147.826 78.2149V12.3677C147.826 6.02426 152.962 0.881836 159.296 0.881836H240.703C247.039 0.881836 252.173 6.02426 252.173 12.3677Z" fill="white"/>
<path d="M252.179 12.3663V78.2177C252.179 84.5611 247.035 89.7022 240.7 89.7022H159.298C154.917 89.7022 151.118 87.2454 149.183 83.6327C150.664 84.3238 152.318 84.7157 154.054 84.7157H235.457C241.791 84.7157 246.925 79.5732 246.925 73.2312V7.3882C246.925 5.42309 246.434 3.58441 245.572 1.96484C249.47 3.7937 252.179 7.77027 252.179 12.3663Z" fill="#CCD2FF"/>
<path d="M603.112 410.5V476.348C603.112 482.691 597.977 487.834 591.642 487.834H510.236C503.901 487.834 498.766 482.691 498.766 476.348V410.5C498.766 404.157 503.901 399.015 510.236 399.015H591.642C597.977 399.016 603.112 404.158 603.112 410.5Z" fill="white"/>
<path d="M603.117 410.5V476.352C603.117 482.695 597.973 487.836 591.638 487.836H510.236C505.855 487.836 502.057 485.379 500.121 481.766C501.602 482.458 503.256 482.849 504.993 482.849H586.395C592.73 482.849 597.864 477.708 597.864 471.365V405.522C597.864 403.557 597.373 401.718 596.51 400.099C600.41 401.926 603.117 405.904 603.117 410.5Z" fill="#CCD2FF"/>
<path d="M180.651 35.0729C185.303 27.1998 193.66 21.8467 203.137 21.8467C215.647 21.8467 226.543 30.4179 226.543 43.1328C226.543 45.7159 226.145 48.1572 225.345 50.4524C221.659 61.0575 209.45 59.8537 208.236 53.7744C205.706 56.8815 202.043 58.3887 198.099 58.3887C187.26 58.3887 185.503 46.4843 189.713 39.5621C192.545 34.9071 197.393 32.6119 202.216 32.6119C205.288 32.6119 207.908 33.657 210.079 35.7485L210.263 34.7035C210.53 32.9589 212.778 32.1161 214.104 33.4435C215.027 34.3677 214.669 35.521 214.687 35.7499C212.659 47.7513 212.23 49.0365 212.23 51.4385C212.23 57.2692 218.635 56.2044 221.168 52.1155C222.541 49.9018 223.226 46.9071 223.226 43.1342C223.226 31.7902 213.534 25.1083 203.137 25.1083C194.794 25.1083 187.485 29.804 183.418 36.6742C181.327 40.2013 180.284 43.9938 180.284 48.0547C180.284 57.4504 187.232 66.0805 198.653 66.0805C201.15 66.0805 203.321 65.8432 205.164 65.3726C207.006 64.9006 209.116 64.1941 211.492 63.2502C213.683 62.5226 214.459 65.2097 212.843 66.0187C208.501 68.1917 203.77 69.2789 198.653 69.2789C180.463 69.2775 171.592 50.3976 180.651 35.0729ZM208.42 45.5305L209.403 39.8094C207.601 37.9243 205.288 36.9804 202.463 36.9804C199.064 36.9804 195.745 38.4735 193.799 41.5638C191.925 44.543 191.681 49.8667 194.353 52.329C195.663 53.5384 197.362 54.1438 199.452 54.1438C204.447 54.1438 207.438 51.2741 208.42 45.5305Z" fill="#E1E5FF"/>
<path d="M178.99 33.5094C183.641 25.6363 191.998 20.2832 201.475 20.2832C213.985 20.2832 224.881 28.8544 224.881 41.5693C224.881 46.3451 223.536 51.4201 219.937 54.5497C215.858 58.0908 207.632 57.5079 206.574 52.2109C204.044 55.318 200.381 56.8252 196.437 56.8252C185.358 56.8252 183.987 44.6806 188.051 37.9987C190.883 33.3436 195.731 31.0484 200.554 31.0484C203.626 31.0484 206.246 32.0935 208.418 34.185L208.601 33.14C209 30.5414 213.086 30.5779 213.086 33.5094C213.065 33.6288 210.566 47.7259 210.566 49.8736C210.566 55.7492 217.049 54.5146 219.506 50.5506C220.879 48.3369 221.564 45.3422 221.564 41.5693C221.564 30.2253 211.872 23.5434 201.475 23.5434C193.132 23.5434 185.824 28.2391 181.756 35.1093C174.031 48.1529 181.174 64.5157 196.992 64.5157C200.846 64.5157 203.685 64.1252 209.831 61.6867C212.023 60.9591 212.798 63.6462 211.182 64.4553C206.841 66.6283 202.111 67.7155 196.992 67.7155C178.83 67.7141 169.926 48.8412 178.99 33.5094ZM206.758 43.967L207.741 38.2459C205.939 36.3608 203.626 35.4169 200.801 35.4169C197.402 35.4169 194.083 36.9101 192.137 40.0003C189.579 44.0668 189.819 52.5803 197.79 52.5803C202.786 52.5803 205.776 49.7106 206.758 43.967Z" fill="#F59A16"/>
<path d="M569.671 438.454H565.595V433.541C565.595 426.537 559.907 420.83 552.901 420.83C545.907 420.83 540.221 426.537 540.221 433.541V438.454H537.121C535.607 438.454 534.387 439.676 534.387 441.192V468.532C534.387 470.048 535.607 471.27 537.121 471.27H569.671C571.185 471.27 572.405 470.048 572.405 468.532V441.192C572.405 439.676 571.185 438.454 569.671 438.454ZM561.249 438.454H544.565V433.541C544.565 428.934 548.299 425.193 552.913 425.193C557.502 425.193 561.249 428.934 561.249 433.541V438.454Z" fill="#E1E5FF"/>
<path d="M567.216 435.829H563.14V430.916C563.14 423.912 557.452 418.205 550.446 418.205C543.452 418.205 537.766 423.912 537.766 430.916V435.829H534.666C533.152 435.829 531.932 437.051 531.932 438.567V465.907C531.932 467.423 533.152 468.645 534.666 468.645H567.216C568.73 468.645 569.95 467.423 569.95 465.907V438.567C569.95 437.051 568.73 435.829 567.216 435.829ZM558.795 435.829H542.111V430.916C542.111 426.309 545.845 422.568 550.459 422.568C555.049 422.568 558.795 426.309 558.795 430.916V435.829Z" fill="#F59A16"/>
<path d="M553.848 458.423H548.031C547.693 458.423 547.45 458.103 547.533 457.777L549.072 451.875C548.261 451.299 547.731 450.347 547.731 449.266C547.731 447.488 549.167 446.05 550.943 446.05C552.719 446.05 554.148 447.488 554.148 449.266C554.148 450.347 553.618 451.3 552.807 451.875L554.346 457.777C554.429 458.105 554.186 458.423 553.848 458.423Z" fill="white"/>
<path d="M161.223 574.64C161.223 574.64 152.682 587.837 131.47 576.671L131.348 574.987L130.328 560.963H159.917L160.457 566.628L161.223 574.64Z" fill="#FCBBA4"/>
<path d="M160.458 566.627C160.062 566.556 159.663 566.474 159.266 566.383C156.646 565.792 154.098 564.821 151.418 564.709C148.747 564.596 145.791 565.566 144.497 567.914C143.661 569.414 143.62 571.273 142.774 572.763C141.541 574.928 138.861 575.866 136.373 575.916C134.651 575.947 132.948 575.61 131.349 574.988L130.329 560.964H159.918L160.458 566.627Z" fill="#F2A07C"/>
<path d="M49.304 554.726L48.0808 565.821L47.7947 568.383C47.7947 568.383 38.193 578.09 21.9254 567.046C20.7429 566.25 19.5099 565.331 18.2559 564.29L20.3347 548.685L49.304 554.726Z" fill="#FCBBA4"/>
<path d="M49.304 554.726L48.0808 565.822C45.1547 565.444 42.2917 564.26 39.468 563.27C35.6259 561.922 31.2326 560.952 27.6037 562.789C25.4842 563.861 23.8822 565.76 21.9254 567.045C20.7429 566.249 19.5099 565.33 18.2559 564.289L20.3347 548.684L49.304 554.726Z" fill="#F2A07C"/>
<path d="M188.795 453.883L178.775 551.236C178.235 556.533 174.515 560.82 169.632 562.259C168.481 562.596 167.257 562.779 166.003 562.779H124.773C116.485 562.779 110.36 555.032 112.266 546.958L135.598 448.186C136.728 443.368 136.383 438.316 134.599 433.693C116.292 386.139 107.965 344.311 110.524 308.71H168.643L171.976 329.267L188.418 430.835C189.651 438.46 189.773 446.218 188.795 453.883Z" fill="#66D3D8"/>
<path d="M166.809 558.003C168.072 559.207 169.011 560.668 169.632 562.259C168.481 562.596 167.257 562.779 166.003 562.779H124.773C116.485 562.779 110.36 555.032 112.266 546.958L135.598 448.186C136.728 443.368 136.383 438.316 134.599 433.693C116.292 386.139 107.965 344.311 110.524 308.71H168.643L171.976 329.267C161.661 336.341 149.225 340.739 141.346 350.415C129.227 365.286 132.07 387.435 139.44 405.165C146.81 422.883 158.082 439.265 161.527 458.158C164.85 476.459 160.12 496.076 148.806 510.846C144.424 516.572 139.061 521.666 135.943 528.167C132.823 534.669 132.589 543.365 137.859 548.284C145.444 555.379 159.326 550.817 166.809 558.003Z" fill="#47B6C3"/>
<path d="M135.985 308.711L134.446 321.163L120.594 433.337C119.473 442.431 117.097 451.332 113.53 459.783L74.848 549.797C72.9529 554.196 68.7938 557.156 64.0848 557.534C63.7482 557.565 63.4017 557.574 63.0552 557.574H13.7518C3.88499 557.574 -2.30248 546.898 2.60149 538.324L55.1452 446.422C57.8665 441.543 59.1823 436.021 58.9985 430.438C57.7346 392.917 60.0996 355.479 78.742 308.711H135.985Z" fill="#66D3D8"/>
<path d="M135.985 308.711L134.446 321.164C126.588 317.652 118.27 316.367 108.525 318.989C94.4274 322.776 82.716 334.412 78.8234 348.497C73.9208 366.298 80.9639 384.874 83.8788 403.104C90.0761 441.808 76.1932 483.187 47.9183 510.296C39.3265 518.523 20.8567 531.25 29.5298 539.406C34.8308 544.387 44.2585 539.977 50.9145 542.906C57.1329 545.641 62.5965 550.959 64.0848 557.533C63.7482 557.564 63.4017 557.573 63.0552 557.573H13.7518C3.88499 557.573 -2.30248 546.897 2.60149 538.323L55.1452 446.421C57.8665 441.542 59.1823 436.021 58.9985 430.437C57.7346 392.916 60.0996 355.478 78.742 308.71H135.985V308.711Z" fill="#47B6C3"/>
<path d="M217.876 314.825L216.877 315.386C212.352 317.887 206.673 316.427 203.911 312.059L169.153 256.922L168.909 286.236L168.725 308.712H78.7718C77.4981 297.963 75.7447 283.042 75.1429 268.058C74.2774 246.644 75.7657 225.118 84.3673 215.544C86.6089 213.044 89.0454 210.89 91.583 209.032C108.87 196.365 131.05 197.355 131.05 197.355L148.247 201.315L152.16 202.224C161.293 204.326 169.916 208.226 177.54 213.685C180.934 216.116 186.04 222.443 191.81 230.711C203.287 247.134 217.414 271.264 226.017 287.829C231.065 297.545 227.446 309.518 217.876 314.825Z" fill="#8D95FF"/>
<path d="M191.811 230.71C187.908 227.617 183.901 224.647 179.703 221.983C172.945 217.686 165.657 214.225 158.084 211.643C144.487 207.019 129.931 205.213 115.62 206.377C108.802 206.928 102.308 209.021 95.5711 209.807C93.6143 210.032 92.3406 209.705 91.5859 209.032C108.873 196.365 131.053 197.355 131.053 197.355L148.249 201.315L152.163 202.224C161.296 204.326 169.919 208.226 177.543 213.685C180.936 216.114 186.043 222.442 191.811 230.71Z" fill="#757BFF"/>
<path d="M149.706 201.652L149.553 202.183C147.505 209.266 140.94 214.216 133.591 214.216C132.021 214.216 130.452 213.992 128.933 213.542C124.702 212.317 121.166 209.511 118.994 205.621C117.821 203.457 117.14 201.131 116.976 198.782C124.977 197.354 131.052 197.354 131.052 197.354L148.248 201.313L149.706 201.652Z" fill="white"/>
<path d="M168.908 286.236L168.725 308.712H78.7715C77.4978 297.963 75.7444 283.042 75.1426 268.058C78.1599 265.956 82.002 264.802 85.6617 264.027C91.1857 262.864 97.0982 262.027 101.44 258.413C104.803 255.626 105.444 254.279 107.3 250.319C108.279 248.226 102.448 241.255 105.547 241.714C108.442 242.133 115.485 251.197 115.954 253.381C117.564 260.852 121.969 262.465 126.85 268.355C134.292 277.326 145.146 283.379 156.685 285.003C160.672 285.562 164.881 285.674 168.908 286.236Z" fill="#757BFF"/>
<path d="M226.019 287.827C219.211 274.723 209.486 257.466 199.814 242.45C189.099 243.313 178.898 248.279 169.157 256.924L203.911 312.056C206.669 316.43 212.354 317.891 216.874 315.385L217.878 314.829C227.451 309.521 231.068 297.548 226.019 287.827Z" fill="#FCBBA4"/>
<path d="M287.886 254.814C287.795 254.607 287.702 254.401 287.6 254.194C283.945 246.682 274.851 243.62 267.441 247.233L102.921 327.461C86.8974 309.247 59.3617 303.478 35.5503 315.086C16.9598 324.158 5.26518 341.625 3.19334 360.228C2.10482 369.921 3.62819 379.922 8.14079 389.199C21.3349 416.325 55.0329 427.105 83.312 413.307C105.899 402.296 118.257 379.014 115.68 356.293C115.634 355.833 115.576 355.375 115.509 354.916L115.83 354.756L173.626 326.576L183.946 347.794C185.24 350.479 188.562 351.716 191.345 350.352L206.544 342.943C209.293 341.601 210.38 338.218 209.076 335.545L206.796 330.866L198.756 314.316L203.452 312.033L236.45 295.942L254.982 334.043C256.321 336.807 259.609 337.953 262.301 336.635L277.5 329.225C280.26 327.884 281.371 324.58 280.032 321.827L277.752 317.135L261.511 283.724L266.208 281.43L280.65 274.389C287.852 270.883 291.081 262.201 287.886 254.814ZM28.242 355.55C28.9069 354.828 29.7191 354.219 30.6589 353.76C32.6747 352.774 34.9204 352.694 36.9011 353.371C38.8593 354.059 40.5889 355.492 41.5736 357.523L52.5458 380.094L53.9093 382.892C55.8913 386.965 54.1954 391.861 50.1415 393.835C46.075 395.82 41.1963 394.121 39.2142 390.062L26.8785 364.692C25.3664 361.56 26.0088 357.946 28.242 355.55Z" fill="#EFA130"/>
<path d="M287.6 254.194C283.945 246.682 274.851 243.62 267.441 247.233L102.921 327.461C86.8974 309.247 59.3617 303.478 35.5503 315.086C16.9598 324.158 5.2652 341.625 3.19336 360.228C3.84563 366.009 5.46158 371.755 8.14081 377.249C21.3349 404.374 55.0329 415.155 83.312 401.357C101.936 392.284 113.607 374.862 115.68 356.294C115.749 355.779 115.795 355.273 115.829 354.757C116.161 350.847 116.058 346.89 115.508 342.967L173.624 314.626L183.944 335.856C185.239 338.528 188.561 339.767 191.344 338.414L206.542 331.005C206.634 330.958 206.714 330.913 206.795 330.867L198.754 314.317V314.329L194.058 304.672L236.449 283.992L254.98 322.094C256.32 324.858 259.608 326.004 262.3 324.698L277.498 317.277C277.59 317.231 277.67 317.186 277.751 317.139L261.51 283.728L256.814 274.071L280.649 262.442C284.017 260.802 286.501 258.037 287.887 254.815C287.794 254.607 287.703 254.402 287.6 254.194ZM52.5486 392.045C51.8837 392.769 51.0828 393.375 50.1429 393.835C46.0764 395.819 41.1977 394.121 39.2156 390.062L28.2434 367.502L26.88 364.692C24.9105 360.632 26.5826 355.746 30.6603 353.761C32.6761 352.775 34.9219 352.694 36.9025 353.371C38.8607 354.059 40.5903 355.493 41.575 357.523L53.9107 382.905C55.4355 386.023 54.7832 389.647 52.5486 392.045Z" fill="#FFC25E"/>
<path d="M161.214 167.267C155.7 168.788 150.033 165.563 148.504 160.061C148.138 158.724 148.045 157.367 148.198 156.071C147.291 155.989 146.404 155.815 145.539 155.549C143.948 160.571 140.166 164.796 135.02 166.787C135.54 171.717 132.441 176.452 127.508 177.82C122.004 179.351 116.327 176.116 114.808 170.624C114.033 167.806 114.482 164.959 115.847 162.632C113.828 160.55 112.28 157.947 111.454 154.957C108.823 145.454 114.338 135.686 123.838 133.052C128.721 131.696 133.705 132.512 137.731 134.94C139.494 132.072 142.307 129.847 145.825 128.867C153.195 126.826 160.838 131.122 162.888 138.543C163.764 141.697 163.468 144.902 162.276 147.699C165.171 148.852 167.506 151.292 168.402 154.538C169.918 160.03 166.698 165.736 161.214 167.267Z" fill="#FC6054"/>
<path d="M139.166 151.476C139.166 151.476 139.082 157.2 145.537 160.604L147.27 155.549C143.963 155.404 141.455 153.66 139.166 151.476Z" fill="#E64B38"/>
<path d="M162.713 137.973C159.318 133.961 153.794 132.073 148.412 133.563C144.895 134.544 142.083 136.769 140.318 139.637C136.292 137.207 131.308 136.391 126.425 137.749C116.925 140.383 111.411 150.151 114.041 159.653C114.172 160.144 114.327 160.623 114.52 161.093C113.144 159.316 112.084 157.256 111.453 154.959C108.822 145.457 114.337 135.689 123.837 133.055C128.72 131.698 133.704 132.514 137.73 134.943C139.493 132.075 142.306 129.85 145.824 128.869C152.999 126.879 160.439 130.91 162.713 137.973Z" fill="#E64B38"/>
<path d="M168.471 168.829C167.523 170.248 165.963 171.013 164.383 170.942C166.218 180.7 160.337 190.356 150.613 193.05C148.983 193.509 147.34 193.734 145.72 193.753H145.629L145.079 195.672L144.111 199L143.683 200.469C142.063 206.062 136.243 209.299 130.646 207.665C127.853 206.859 125.651 204.991 124.337 202.634C123.053 200.265 122.655 197.397 123.46 194.61L125.988 185.863L126.538 183.955L127.312 181.291C126.017 182.067 124.387 182.21 122.909 181.475C120.636 180.332 119.678 177.545 120.83 175.27C121.635 173.595 123.327 172.646 125.049 172.717L124.581 171.033C124.244 169.818 124.031 168.593 123.938 167.389C126.915 168.206 130.136 168.246 133.325 167.359C139.34 165.684 143.773 161.102 145.538 155.55C147.953 156.284 150.603 156.356 153.233 155.631C154.915 155.162 156.444 154.406 157.77 153.416C159.105 154.988 160.195 156.784 160.98 158.794C161.224 159.417 161.449 160.07 161.633 160.744L161.999 162.459C163.476 161.5 165.475 161.387 167.035 162.438C169.216 163.796 169.797 166.676 168.471 168.829Z" fill="#FCBBA4"/>
<path d="M145.72 193.754H145.629L145.079 195.672L144.111 199C139.514 197.837 137.404 191.967 137.404 191.967C140.604 192.978 143.407 193.6 145.72 193.754Z" fill="#F2A07C"/>
<path d="M160.98 158.795C160.001 160.286 158.534 161.53 157.045 162.388C153.875 164.205 150.155 164.726 146.516 165.094C142.887 165.472 139.177 165.727 135.794 167.094C133.622 167.972 131.441 169.615 131.238 171.943C131.135 173.158 131.604 174.342 131.859 175.546C132.511 178.649 131.553 182.12 129.179 184.211C128.271 185.017 127.16 185.579 125.989 185.864L126.539 183.956L127.313 181.292C126.018 182.068 124.388 182.211 122.91 181.476C120.637 180.333 119.679 177.546 120.831 175.271C121.636 173.596 123.328 172.647 125.05 172.718L124.582 171.034C124.245 169.819 124.032 168.594 123.939 167.39C126.916 168.207 130.137 168.247 133.326 167.36C139.341 165.685 143.774 161.103 145.539 155.551C147.954 156.285 150.604 156.357 153.234 155.632C154.916 155.163 156.445 154.407 157.771 153.417C159.103 154.987 160.194 156.784 160.98 158.795Z" fill="#F2A07C"/>
<path d="M192.025 301.811C195.093 303.546 197.439 305.251 197.927 307.077C198.681 309.895 193.748 306.934 189.792 305.618C192.248 307.139 193.961 308.374 194.369 309.905C195.144 312.845 189.976 309.967 185.97 308.609C187.978 309.946 189.864 309.946 190.22 311.273C191.137 314.713 180.506 312.008 175.726 310.63C174.349 310.232 173.463 309.946 173.463 309.946L131.52 305.393C126.954 304.883 122.417 304.077 118.014 302.781C109.045 300.158 100.789 296.013 94.0204 290.216C87.4556 284.592 82.2879 277.407 79.251 268.527C79.1486 268.261 79.0574 267.986 78.9648 267.711C76.3347 259.627 75.4285 251.063 76.4876 242.622C76.6405 241.378 76.8242 240.244 77.0487 239.326L104.182 235.732L106.607 247.44C110.205 264.854 123.426 278.684 140.642 283.031L176.246 292.105C176.246 292.105 183.901 285.756 186.316 288.094C187.967 289.685 183.707 294.412 183.707 294.412C183.707 294.412 197.468 298.209 198.649 302.639C199.303 305.087 195.604 302.872 192.025 301.811Z" fill="#FCBBA4"/>
<path d="M176.083 309.833C176.031 310.139 175.91 310.405 175.727 310.629C174.35 310.232 173.464 309.945 173.464 309.945L131.521 305.393C126.955 304.883 122.418 304.077 118.015 302.78C109.046 300.158 100.79 296.013 94.0214 290.216C87.4566 284.591 82.2889 277.407 79.252 268.526C79.6489 265.985 80.8623 263.749 83.7982 263.26C87.5393 262.638 88.0485 267.609 88.6601 270.201C90.5145 278.029 95.0005 285.113 101.248 290.176C104.755 293.035 108.822 295.229 113.163 296.494C122.571 299.219 132.601 297.913 142.375 298.444C153.291 299.026 164.075 301.956 173.789 306.968C174.952 307.567 176.276 308.537 176.083 309.833Z" fill="#F2A07C"/>
<path d="M77.0463 239.327C76.8275 240.245 76.6423 241.377 76.4866 242.623C75.4332 251.058 76.3365 259.624 78.9652 267.706C79.6007 269.661 80.3371 271.565 81.1605 273.418C92.4666 265.179 105.892 264.461 122.042 273.418C114.295 266.84 108.745 257.785 106.606 247.443L104.185 235.736" fill="#8D95FF"/>
<path d="M225.786 307.988C222.7 310.917 214.301 314.664 211.068 312.104C209.459 310.816 204.14 302.034 207.169 301.427C208.602 301.14 209.821 303.325 211.273 305.075C209.598 301.463 207.129 298.074 208.866 297.108C210.168 296.383 212.021 299.052 213.683 301.199C212.065 297.629 209.657 294.124 211.109 293.76C212.831 293.328 215.09 296.026 217.012 298.727C215.664 295.489 213.869 292.755 215.396 292.052C218.47 290.636 223.334 303.024 223.334 303.024C223.334 303.024 227.315 298.568 228.966 299.944C231.385 301.983 227.627 306.231 225.786 307.988Z" fill="#FCBBA4"/>
<path d="M300.53 603.118H486.855C494.152 591.211 515.927 553.453 506.056 541.881C494.287 528.087 462.713 563.726 462.713 563.726C462.713 563.726 487.097 514.105 469.602 504.517C449.089 493.277 421.426 527.115 421.426 527.115C421.426 527.115 430.945 449.616 401.043 450.148C372.685 450.654 367.92 533.918 367.92 533.918C367.92 533.918 329.366 430.458 302.95 440.792C274.31 451.997 319.51 562.832 319.51 562.832C319.51 562.832 281.845 508.457 262.183 524.561C238.561 543.912 289.691 593.132 300.53 603.118Z" fill="#9ADF73"/>
<path d="M433.829 514.761C433.671 527.817 432.398 538.103 432.398 538.103C432.398 538.103 455.772 509.521 475.474 513.63C474.726 509.554 472.914 506.322 469.606 504.507C457.84 498.075 443.735 506.449 433.829 514.761Z" fill="#007AFF"/>
<path d="M369.097 521.098C375.107 534.745 378.892 544.903 378.892 544.903C378.892 544.903 383.663 461.645 412.013 461.135C413.73 461.103 415.321 461.326 416.784 461.804C413.461 454.686 408.469 450.022 401.043 450.148C379.718 450.53 371.737 497.724 369.097 521.098Z" fill="#007AFF"/>
<path d="M317.292 557.194C324.749 565.633 330.012 573.148 330.474 573.77C329.425 571.207 285.617 462.853 313.92 451.772C318.134 450.116 322.666 451.375 327.309 454.638C318.994 444.129 310.471 437.839 302.949 440.785C278.208 450.466 308.578 534.489 317.292 557.194Z" fill="#007AFF"/>
<path d="M298.005 600.743C280.132 581.826 255.311 550.172 273.168 535.54C281.849 528.423 294.062 535.078 304.985 544.711C292.248 530.604 273.979 514.904 262.18 524.553C240.077 542.674 283.471 586.986 298.005 600.743Z" fill="#007AFF"/>
<path d="M338.416 603.118H438.413C442.329 596.728 454.016 576.464 448.718 570.253C442.401 562.85 425.456 581.976 425.456 581.976C425.456 581.976 438.542 555.345 429.154 550.2C418.145 544.167 403.298 562.328 403.298 562.328C403.298 562.328 408.407 520.736 392.36 521.021C377.142 521.292 374.584 565.979 374.584 565.979C374.584 565.979 353.893 510.454 339.717 516C324.345 522.013 348.604 581.496 348.604 581.496C348.604 581.496 328.389 552.313 317.838 560.957C305.159 571.343 332.599 597.759 338.416 603.118Z" fill="white"/>
<path d="M403.3 576.732C403.3 576.732 418.151 558.581 429.155 564.598C430.029 565.076 430.713 565.744 431.221 566.556C433.018 559.693 433.527 552.608 429.155 550.203C419.646 544.981 407.244 557.861 404.063 561.429C404.158 569.694 403.3 576.732 403.3 576.732Z" fill="#72C742"/>
<path d="M374.583 580.378C374.583 580.378 377.143 535.699 392.36 535.429C400.359 535.286 403.109 545.557 403.84 555.889C404.525 544.233 404.413 520.795 392.36 521.019C377.143 521.29 374.583 565.984 374.583 565.984C374.583 565.984 353.896 510.447 339.713 516.004C334.482 518.042 333.845 526.29 335.276 536.273C336.024 533.391 337.439 531.305 339.713 530.414C353.896 524.856 374.583 580.378 374.583 580.378Z" fill="#72C742"/>
<path d="M316.735 576.414C317.054 576.047 317.42 575.698 317.832 575.363C328.2 566.876 347.869 594.853 348.585 595.871C348.346 595.283 343.751 583.913 339.903 570.777C333.129 563.484 323.891 555.985 317.832 560.953C313.332 564.647 313.889 570.347 316.735 576.414Z" fill="#72C742"/>
<path d="M591.638 398.134H510.23C503.42 398.134 497.879 403.683 497.879 410.502V443.085H434.443V339.744C434.443 339.735 434.438 339.725 434.438 339.715H558.173C574.652 339.715 588.05 326.299 588.05 309.81V74.8876C588.05 58.3984 574.652 44.9825 558.173 44.9825H323.585C307.118 44.9825 293.721 58.3984 293.721 74.8876V156.607H200.883V90.5888H240.707C247.517 90.5888 253.058 85.0291 253.058 78.2096V12.368C253.058 5.54837 247.517 0 240.707 0H159.299C152.489 0 146.948 5.54697 146.948 12.368V78.2096C146.948 85.0291 152.489 90.5888 159.299 90.5888H199.119V157.491C199.119 157.978 199.514 158.374 200.001 158.374H293.721V309.808C293.721 326.298 307.118 339.713 323.585 339.713H432.687C432.687 339.723 432.681 339.733 432.681 339.743V443.967C432.681 444.454 433.077 444.85 433.564 444.85H497.881V476.344C497.881 483.163 503.42 488.723 510.232 488.723H591.639C598.45 488.723 604.002 483.163 604.002 476.344V410.502C604 403.683 598.448 398.134 591.638 398.134ZM200.001 88.8175C199.996 88.8175 199.991 88.8203 199.987 88.8203H159.301C153.456 88.8203 148.714 84.0613 148.714 78.2082V12.368C148.714 6.52601 153.454 1.76705 159.301 1.76705H240.709C246.543 1.76705 251.295 6.52601 251.295 12.368V78.2096C251.295 84.0627 246.543 88.8217 240.709 88.8217H200.017C200.011 88.8217 200.007 88.8175 200.001 88.8175ZM323.585 337.946C308.093 337.946 295.484 325.32 295.484 309.808V74.8876C295.484 59.376 308.093 46.7496 323.585 46.7496H558.173C573.676 46.7496 586.285 59.376 586.285 74.8876V309.808C586.285 325.32 573.676 337.946 558.173 337.946H323.585ZM602.236 476.344C602.236 482.197 597.483 486.956 591.638 486.956H510.23C504.396 486.956 499.644 482.197 499.644 476.344C499.644 440.737 499.644 447.735 499.644 410.502C499.644 404.66 504.396 399.901 510.23 399.901H591.638C597.483 399.901 602.236 404.66 602.236 410.502V476.344Z" fill="#ADC9F6"/>
<path d="M42.3697 357.134C40.1772 352.646 34.7808 350.751 30.2654 352.965C25.75 355.166 23.8998 360.563 26.0895 365.073L38.428 390.444C40.6064 394.939 46.021 396.814 50.5308 394.637C50.5308 394.625 50.5308 394.625 50.5308 394.625C55.0125 392.447 56.895 387.005 54.7067 382.505L42.3697 357.134ZM49.7565 393.046C46.1458 394.802 41.7693 393.294 40.0173 389.678L27.6662 364.296C25.917 360.671 27.4081 356.315 31.0426 354.555C34.6265 352.802 39.0003 354.246 40.7818 357.912L53.1202 383.283C54.8849 386.898 53.3671 391.279 49.7565 393.046Z" fill="#112544"/>
<path d="M154.9 166.452C154.076 166.677 153.667 167.584 153.865 168.278C154.076 169.044 154.911 169.479 155.676 169.267C156.441 169.049 156.927 168.25 156.722 167.489C156.512 166.712 155.664 166.24 154.9 166.452Z" fill="#112544"/>
<path d="M150.043 164.699C150.946 164.682 152.454 164.35 153.312 164.121C155.064 163.638 156.912 162.673 156.724 161.99C156.536 161.33 154.395 161.225 152.642 161.708C151.539 162.024 149.984 162.835 149.23 163.675V163.686C148.721 164.249 148.803 164.699 150.043 164.699Z" fill="#112544"/>
<path d="M140.092 174.121C140.868 173.909 141.35 173.108 141.138 172.342C140.926 171.564 140.092 171.094 139.315 171.306C138.55 171.529 138.068 172.365 138.28 173.132C138.504 173.909 139.327 174.344 140.092 174.121Z" fill="#112544"/>
<path d="M150.195 174.416C149.513 174.463 148.689 174.558 148.466 174.58C147.983 174.639 147.642 175.087 147.701 175.569C147.775 176.136 148.36 176.438 148.677 176.334C149.394 176.252 150.571 176.135 150.877 176.146C151.418 176.17 151.842 175.947 152.054 175.521C152.277 175.073 152.783 174.049 147.937 168.36C147.62 167.982 147.066 167.936 146.701 168.253C146.325 168.572 146.277 169.137 146.596 169.502C148.055 171.212 149.631 173.331 150.195 174.416Z" fill="#112544"/>
<path d="M164.617 167.196C164.885 167.196 164.732 167.188 165.84 166.901C166.312 166.77 166.581 166.276 166.452 165.805C166.319 165.34 165.828 165.069 165.371 165.193L164.383 165.464C163.913 165.593 163.642 166.088 163.771 166.547C163.865 166.93 164.237 167.196 164.617 167.196Z" fill="#112544"/>
<path d="M124.084 176.654L123.108 176.923C122.123 177.194 122.329 178.654 123.343 178.654C123.52 178.654 123.554 178.62 124.566 178.348C125.683 178.025 125.212 176.324 124.084 176.654Z" fill="#112544"/>
<path d="M150.901 188.278C154.442 188.278 156.233 182.837 157.017 179.374C157.041 179.16 156.86 178.998 156.618 179.091C156.393 179.091 152.101 181.908 145.114 179.716C144.965 179.66 144.749 179.763 144.749 180.011C145.33 183.668 147.263 188.278 150.901 188.278Z" fill="#112544"/>
<path d="M148.469 186.042C149.023 186.662 149.748 187.111 150.644 187.217C150.75 187.23 150.842 187.23 150.935 187.23C152.056 187.23 152.925 186.491 153.585 185.501C153.03 184.88 152.305 184.432 151.409 184.325C151.304 184.312 151.211 184.313 151.119 184.313C149.998 184.313 149.128 185.051 148.469 186.042Z" fill="#FC6054"/>
<path d="M146.813 180.148C147.44 181.763 148.982 182.894 150.793 182.894C152.729 182.894 154.378 181.601 154.916 179.788C153.213 180.346 150.346 180.902 146.813 180.148Z" fill="white"/>
<path d="M264.073 602.233H243.704C243.217 602.233 242.821 602.63 242.821 603.117C242.821 603.604 243.217 604 243.704 604H264.073C264.559 604 264.955 603.604 264.955 603.117C264.955 602.63 264.559 602.233 264.073 602.233Z" fill="#3395FF"/>
<path d="M552.037 602.233H537.346C536.859 602.233 536.464 602.63 536.464 603.117C536.464 603.604 536.859 604 537.346 604H552.037C552.524 604 552.919 603.604 552.919 603.117C552.919 602.63 552.524 602.233 552.037 602.233Z" fill="#3395FF"/>
<path d="M103.312 328.25C103.283 328.266 103.285 328.263 103.312 328.25V328.25Z" fill="#112544"/>
<path d="M254.182 334.426C255.746 337.617 259.533 338.973 262.674 337.442L277.882 330.021C281.069 328.466 282.388 324.638 280.811 321.434L262.674 284.132L281.034 275.192C289.559 271.026 292.356 260.468 287.939 252.955C283.38 244.363 273.577 243.26 267.049 246.441C230.022 264.498 254.726 252.451 217.659 270.528C211.989 260.435 206.002 250.446 200.544 241.977C200.461 241.824 200.321 241.719 200.168 241.66C191.429 228.08 183.031 216.536 178.043 212.967C170.28 207.408 161.646 203.497 152.354 201.366C151.243 201.109 144.408 199.523 144.838 199.623L146.297 194.63C147.85 194.559 149.368 194.323 150.838 193.899C160.684 191.178 166.8 181.778 165.411 171.767C166.94 171.544 168.292 170.672 169.198 169.318C169.21 169.318 169.21 169.306 169.222 169.294C170.609 167.032 170.21 164.147 168.41 162.415C169.657 160.001 170.022 157.127 169.245 154.312C168.375 151.178 166.268 148.647 163.411 147.232C167.364 136.161 157.295 124.794 145.579 128.022C142.262 128.952 139.392 130.979 137.439 133.77C133.228 131.485 128.241 130.92 123.594 132.204C113.619 134.984 107.833 145.219 110.596 155.195C111.385 157.999 112.807 160.613 114.76 162.769C113.477 165.267 113.195 168.117 113.947 170.861C114.747 173.748 116.617 176.15 119.217 177.635C119.3 177.682 119.37 177.717 119.453 177.753C119.453 177.764 119.453 177.764 119.453 177.764C119.501 178.188 119.595 178.612 119.724 179.036C120.206 180.45 121.183 181.604 122.511 182.276C123.593 182.805 124.805 182.971 125.969 182.746L122.605 194.371C122.347 195.277 122.194 196.197 122.158 197.116C120.522 197.317 118.735 197.575 116.806 197.916C106.102 199.824 91.6579 204.347 83.6595 215.018C74.0143 227.868 72.0617 259.34 77.8606 308.551C77.6137 309.163 77.3668 309.765 77.1438 310.364C63.6761 306.572 48.6794 307.703 35.1515 314.299C6.5693 328.244 -6.12266 361.884 7.34501 389.598C16.9201 409.256 36.8922 420.222 57.5237 420.222H57.8772C57.9123 423.685 57.995 427.089 58.1128 430.469C58.2896 435.911 56.9949 441.282 54.3717 445.981L1.83086 537.886C-3.39153 547.037 3.17187 558.451 13.7583 558.451H18.1461C17.3928 564.352 17.2876 564.199 17.4167 564.564C15.4879 565.341 10.7116 568.085 9.46595 576.578C8.64254 582.267 7.94819 585.388 7.4895 587.072C7.21877 588.098 7.85421 589.133 8.88943 589.345L74.8405 603.078C75.828 603.278 76.8043 602.643 77.0049 601.652C76.9937 601.534 79.3461 591.5 69.9589 586.694L54.6916 578.58L48.2923 569.122C48.3624 569.052 48.4101 569.015 48.4101 569.004C48.8337 568.58 48.5518 568.886 49.775 558.451H63.0435C68.5366 558.451 73.4882 555.188 75.6527 550.147L114.339 460.124C117.927 451.596 120.326 442.621 121.467 433.445L124.596 408.063C127.301 416.508 130.359 425.154 133.771 434.012C135.488 438.464 135.852 443.27 134.736 447.981L111.411 546.754C109.365 555.411 115.939 563.668 124.761 563.668H129.631L130.584 576.742C130.595 576.872 130.632 577.001 130.702 577.108C130.713 577.108 130.713 577.108 130.713 577.119C128.972 578.261 124.868 581.924 125.373 590.487C125.714 596.235 125.69 599.439 125.584 601.182C125.514 602.23 126.36 603.113 127.419 603.113L194.77 603.078C195.782 603.078 196.605 602.254 196.605 601.241C196.557 601.123 196.828 590.828 186.654 588.048L170.057 583.208L161.858 575.258C161.917 575.175 161.963 575.128 161.963 575.116C162.068 574.95 162.116 574.751 162.092 574.551L161.057 563.668H165.997C173.054 563.668 178.923 558.355 179.653 551.324L189.663 453.987C190.65 446.249 190.521 438.404 189.287 430.69L172.655 328.029L173.207 327.758L183.135 348.182C184.687 351.375 188.545 352.705 191.721 351.15L206.929 343.742C210.105 342.198 211.387 338.276 209.869 335.155L199.929 314.731L203.47 312.999C206.504 317.286 212.303 318.853 217.302 316.156C223.195 312.893 224.536 310.22 225.019 309.736C227.207 308.193 230.724 304.306 230.63 301.539C230.606 300.962 230.453 300.443 230.16 299.984L236.042 297.121L254.182 334.426ZM216.024 271.328L187.912 285.026L170.292 257.089C179.643 248.961 189.347 244.344 199.204 243.391C204.873 252.223 210.754 262.023 216.024 271.328ZM183.466 295.262C187.111 296.263 192.405 298.23 195.463 300.303L196.909 302.623C196.368 302.435 195.71 302.188 195.169 301.976C194.262 301.646 193.264 301.258 192.264 300.963C191.84 300.834 191.381 301.057 191.204 301.47C191.028 301.883 191.193 302.365 191.58 302.577C193.721 303.791 196.604 305.593 197.062 307.312C197.074 307.336 197.074 307.347 197.086 307.371C196.345 307.301 194.581 306.57 193.369 306.063C192.275 305.615 191.146 305.145 190.064 304.779C189.076 304.473 188.441 305.816 189.323 306.37C190.476 307.076 193.546 308.961 193.546 310.304C193.428 310.269 193.24 310.527 189.217 308.902C188.229 308.513 187.205 308.101 186.242 307.771C185.289 307.441 184.63 308.773 185.488 309.35C187.323 310.564 189.182 310.798 189.358 311.506C189.417 311.695 189.382 311.718 189.37 311.742C188.205 312.838 180.347 311.237 173.726 309.104C172.89 308.936 128.064 304.82 118.255 301.931C102.585 297.356 89.2452 288.105 82.2974 273.686C93.7423 265.689 106.587 265.865 121.608 274.193C121.619 274.193 121.619 274.206 121.632 274.206C127.007 278.753 133.417 282.121 140.416 283.888C147.21 285.633 175.614 292.867 175.786 292.91C175.903 292.921 176.349 293.157 176.81 292.792C177.127 292.534 177.585 292.168 178.139 291.768C180.151 290.307 183.338 288.293 184.973 288.435C185.279 288.459 185.526 288.553 185.703 288.73C186.232 289.248 184.938 291.722 183.045 293.819C182.631 294.308 182.819 295.086 183.466 295.262ZM103.129 326.369C96.4721 318.996 88.05 313.766 78.8397 310.869C78.9926 310.444 79.1693 310.02 79.3334 309.596C118.738 309.596 95.4242 309.596 134.981 309.596L134.817 310.915C123.341 316.511 101.689 327.073 103.129 326.369ZM136.711 309.996L136.757 309.596H137.533C137.603 309.564 137.213 309.752 136.711 309.996ZM184.407 286.734C182.007 286.97 179.02 288.901 177.162 290.268L175.609 291.034L169.751 289.538L169.998 259.939L186.312 285.804L184.407 286.734ZM119.666 175.817C117.702 174.568 116.279 172.661 115.643 170.387C114.962 167.889 115.302 165.299 116.596 163.084C116.796 162.743 116.749 162.307 116.467 162.012C114.49 159.974 113.055 157.454 112.291 154.721C109.785 145.557 115.149 136.358 124.065 133.908C128.488 132.683 133.335 133.307 137.262 135.699C137.686 135.946 138.215 135.817 138.474 135.404C140.18 132.624 142.873 130.61 146.06 129.715C156.682 126.793 165.645 137.488 161.457 147.348C161.374 147.571 161.374 147.819 161.457 148.043C161.539 148.255 161.715 148.432 161.939 148.526C164.704 149.622 166.751 151.907 167.55 154.781C168.173 157.066 167.904 159.398 166.962 161.377C165.61 160.695 164.033 160.636 162.61 161.165C162.565 161.047 161.896 156.922 158.434 152.85C158.139 152.484 157.61 152.437 157.234 152.708C151.389 157.089 142.649 155.735 138.532 149.174C138.285 148.773 137.732 148.644 137.32 148.902C136.909 149.161 136.778 149.703 137.049 150.116C138.779 152.872 141.365 154.957 144.412 156.087C144.412 156.087 144.412 156.099 144.401 156.099C141.402 164.309 132.486 168.832 124.158 166.534C123.581 166.381 123.005 166.851 123.053 167.452C123.229 169.808 123.793 171.433 123.9 171.916C121.784 172.307 120.16 173.945 119.666 175.817ZM124.301 194.863L128.147 181.541C128.394 180.752 127.536 180.139 126.854 180.528C124.725 181.812 122.137 180.681 121.409 178.49C120.655 176.193 122.267 173.578 125.008 173.602C125.29 173.613 125.561 173.484 125.737 173.261C125.914 173.048 125.973 172.753 125.89 172.484C125.667 171.6 125.185 170.198 124.949 168.538C128.454 169.233 131.971 168.879 135.042 167.725C131.418 170.741 142.616 168.232 142.111 166.43C141.947 165.829 140.135 165.688 138.477 166.041C141.982 163.862 144.687 160.481 146.099 156.618C150.204 157.596 154.404 156.712 157.603 154.617C160.653 158.533 161.033 162.355 161.133 162.65C161.25 163.213 161.942 163.549 162.474 163.203C164.178 162.085 166.347 162.544 167.449 163.981C168.437 165.182 168.59 166.938 167.731 168.351C166.967 169.482 165.731 170.106 164.426 170.059C163.886 170.037 163.406 170.541 163.509 171.107C165.297 180.565 159.639 189.635 150.371 192.202C145.715 193.503 140.647 192.854 136.444 190.494C136.021 190.247 135.479 190.411 135.245 190.836C135.009 191.26 135.162 191.802 135.586 192.037C138.314 193.568 141.385 194.44 144.467 194.593C142.935 199.852 142.786 200.481 142.584 200.929C140.923 205.523 135.861 208.27 130.892 206.819C125.6 205.28 122.829 199.804 124.301 194.863ZM122.243 198.891C122.703 203.255 125.848 207.211 130.394 208.514C136.451 210.265 142.409 206.83 144.321 201.33L148.591 202.307C146.043 210.37 137.418 215.133 129.171 212.696C122.992 210.905 118.656 205.634 117.927 199.528C119.373 199.27 120.648 199.079 122.243 198.891ZM77.4874 241.812C77.4874 241.799 77.4874 241.799 77.4874 241.799C78.3585 234.485 79.1693 223.932 85.0622 216.076C92.5079 206.159 105.917 201.765 116.197 199.821C117.054 206.645 121.888 212.418 128.677 214.392C137.835 217.108 147.516 211.797 150.309 202.708L151.967 203.084C161.012 205.169 169.447 208.974 177.021 214.403C181.621 217.677 189.584 228.49 198.135 241.729C188.549 242.871 179.104 247.324 170.034 255.003V247.735C170.034 247.252 169.646 246.852 169.152 246.852C168.669 246.852 168.27 247.252 168.27 247.735V256.923L167.999 289.09L140.852 282.176C109.273 274.214 107.015 244.608 105.046 235.557C104.776 234.339 103.099 234.824 103.316 235.909C106.297 250.091 107.112 258.93 117.266 270.055C104.01 264.2 92.0128 264.872 81.5442 272.057C77.2167 261.846 76.0637 250.728 77.4874 241.812ZM76.3344 261.14C77.6403 267.569 80.1428 273.637 80.5216 274.025C87.6404 289.196 101.498 298.873 117.761 303.623C126.878 306.309 134.499 306.45 141.992 307.416L141.145 307.828H79.5452C77.4397 289.82 76.3695 274.249 76.3344 261.14ZM46.9639 567.956C45.3409 569.393 35.3899 577.061 19.1813 563.916L19.9107 558.451H47.9991L46.9639 567.956ZM119.714 433.222C118.596 442.244 116.244 451.067 112.716 459.429L74.0409 549.44C72.1472 553.845 67.8422 556.684 63.0435 556.684H13.7583C13.7233 556.684 13.7106 556.684 13.7106 556.684C4.54796 556.649 -1.18082 546.754 3.35984 538.758L55.9021 446.85C58.6894 441.857 60.0654 436.166 59.8775 430.407C59.7597 427.039 59.6769 423.634 59.6306 420.172C67.8647 419.877 76.0398 417.84 83.6959 414.105C106.339 403.045 119.56 379.594 116.465 355.437L130.145 348.77C123.326 403.976 128.196 364.476 119.714 433.222ZM132.311 576.119L131.404 563.669H159.294L160.305 574.399C159.047 576.048 150.696 585.576 132.311 576.119ZM187.548 430.973C188.759 438.523 188.889 446.191 187.912 453.788L177.891 551.148C177.268 557.272 172.151 561.902 165.999 561.902H124.76C124.69 561.902 124.654 561.902 124.654 561.902C117.032 561.832 111.364 554.682 113.127 547.156L136.44 448.394C137.628 443.388 137.275 438.193 135.416 433.377C131.522 423.259 128.088 413.412 125.124 403.837L132.029 347.842L170.998 328.843L187.548 430.973ZM217.447 314.049V314.06H217.436L216.448 314.613C212.272 316.945 207.156 315.296 205.097 312.211L208.638 310.492C209.378 311.599 210.084 312.447 210.52 312.801C212.825 314.627 216.931 313.672 219.683 312.613C218.988 313.13 218.235 313.613 217.447 314.049ZM225.187 307.347C224.54 307.948 223.975 308.336 223.741 308.502H223.73C220.048 311.093 213.885 313.202 211.614 311.411C211.261 311.128 210.78 310.516 210.227 309.715C209.91 309.267 209.604 308.749 209.286 308.208C208.027 306.089 206.898 303.556 207.156 302.484C207.204 302.32 207.25 302.32 207.333 302.296C207.368 302.296 207.392 302.285 207.416 302.285C208.016 302.285 208.934 303.498 209.674 304.463C209.969 304.864 210.275 305.264 210.592 305.642C211.238 306.419 212.497 305.666 212.074 304.712C211.663 303.84 211.216 302.98 210.792 302.168C209.969 300.591 208.722 298.199 209.287 297.881C209.829 297.599 211.769 300.167 212.522 301.132L212.981 301.744C213.651 302.569 214.922 301.768 214.486 300.837C214.038 299.859 213.557 298.916 213.086 297.998C212.485 296.832 211.686 295.277 211.557 294.606C212.227 294.653 213.592 295.441 216.285 299.247C216.921 300.095 218.214 299.365 217.838 298.387C216.991 296.396 215.403 293.393 215.78 292.862C215.804 292.839 215.922 292.792 216.169 292.886C218.392 293.794 221.579 301.014 222.521 303.345C222.802 304.005 223.58 304.076 223.991 303.616C224.367 303.192 224.766 302.792 225.167 302.427C225.191 302.427 225.191 302.427 225.191 302.415C225.72 301.932 227.873 300.154 228.402 300.624C230.115 301.965 226.751 305.851 225.187 307.347ZM228.527 298.82C227.809 298.702 226.88 298.725 223.552 301.245C222.305 298.348 219.435 292.293 216.824 291.246C215.284 290.633 213.471 291.552 214.048 293.955C212.989 293.107 211.931 292.647 210.883 292.907C210.436 293.014 210.095 293.296 209.918 293.697C209.624 294.344 209.789 295.158 210.307 296.336C209.684 296.03 209.06 295.995 208.437 296.336C206.954 297.161 207.249 298.751 208.049 300.612C206.989 300.306 205.755 300.776 205.46 302.06C205.049 303.709 206.284 306.594 207.684 308.985C207.566 309.044 198.368 313.532 198.368 313.532C197.956 313.709 197.733 314.262 197.956 314.71L208.283 335.935C209.364 338.15 208.483 341.011 206.142 342.153L190.945 349.561C188.639 350.692 185.852 349.725 184.722 347.418L174.407 326.193C174.195 325.758 173.666 325.57 173.23 325.793C158.056 333.19 117.711 352.848 115.112 354.121H115.1C114.771 354.309 114.572 354.663 114.63 355.039C115.041 357.996 115.207 360.94 115.124 363.849C114.572 384.273 102.314 403.071 82.9188 412.518C54.9216 426.136 21.8844 415.445 8.93291 388.82C-4.17005 361.848 8.34516 329.338 35.9272 315.887C56.8939 305.649 82.0155 307.763 102.267 328.043C102.505 328.362 102.988 328.413 103.302 328.255C113.354 323.329 79.4779 339.869 145.294 307.784C145.432 307.799 155.146 308.847 173.277 310.811C175.96 311.671 183.076 313.803 187.439 313.803C188.863 313.803 189.992 313.58 190.58 313.013C190.991 312.624 191.181 312.106 191.144 311.529C192.92 312.141 194.084 312.294 194.814 311.647C195.683 310.869 195.307 309.491 194.685 308.502C196.414 309.162 197.637 309.409 198.402 308.749C198.719 308.467 199.049 307.901 198.767 306.853C198.555 306.039 198.061 305.287 197.391 304.567C199.131 304.862 199.872 303.909 199.496 302.413C199.179 301.234 198.155 300.116 196.779 299.114C195.814 298.397 194.662 297.737 193.45 297.135L193.439 297.124C190.44 295.628 187.111 294.521 185.253 293.944C186.664 292.142 188.593 289.104 186.935 287.478C197.51 282.322 267.683 248.102 267.825 248.032C274.416 244.889 283.14 246.972 286.798 254.58C290.232 261.636 287.292 270.163 280.246 273.602L261.108 282.93C260.897 283.037 260.744 283.212 260.661 283.437C260.591 283.661 260.602 283.908 260.709 284.109L279.235 322.211C280.375 324.567 279.399 327.323 277.105 328.431L261.921 335.852C259.697 336.923 256.921 336.029 255.77 333.66L237.244 295.556C237.021 295.121 236.503 294.933 236.067 295.144C235.938 295.203 228.975 298.607 228.527 298.82Z" fill="url(#paint0_linear_8004_1126)"/>
</g>
<defs>
<linearGradient id="paint0_linear_8004_1126" x1="145.006" y1="482.5" x2="145.006" y2="603.115" gradientUnits="userSpaceOnUse">
<stop stop-color="white" stop-opacity="0"/>
<stop offset="1" stop-color="#D3E8FF"/>
</linearGradient>
<clipPath id="clip0_8004_1126">
<rect width="604" height="604" fill="white"/>
</clipPath>
</defs>
</svg>
