<svg width="100" height="100" viewBox="0 0 100 100" fill="none" xmlns="http://www.w3.org/2000/svg">
<g clip-path="url(#clip0_8004_1501)">
<path d="M63.6757 63.6758C60.8649 70.0542 56 75.3515 50.054 78.8109C45.1892 81.7298 39.4595 83.3515 33.2973 83.3515C28.4324 83.3515 23.7838 82.2704 19.6757 80.4325C8.32432 75.2433 0.432432 64.1082 0 51.0271C0 50.7028 0 50.3785 0 50.0542C0 49.7298 0 49.4055 0 49.0812C0.324324 36.0001 8.32432 24.7569 19.6757 19.6758C17.8378 23.7839 16.7568 28.4325 16.7568 33.2974C16.7568 39.3515 18.3784 45.0812 21.2973 50.0542C24.7568 56.0001 30.0541 60.865 36.4324 63.6758C40.5405 65.5136 45.1892 66.5947 50.054 66.5947C54.9189 66.5947 59.4595 65.5136 63.6757 63.6758Z" fill="#4666E7"/>
<path d="M100 50.0541C100 50.3785 100 50.7028 100 51.0271C99.6759 64.1082 91.6759 75.3514 80.3245 80.4325C82.1623 76.3244 83.2434 71.6757 83.2434 66.8109C83.2434 60.7568 81.6218 55.0271 78.7029 50.0541C75.2434 44.1082 69.9461 39.2433 63.5677 36.4325C59.4596 34.4866 54.9191 33.5136 50.0542 33.5136C45.1894 33.5136 40.5407 34.5947 36.4326 36.4325C39.2434 30.0541 44.1083 24.7568 50.0542 21.2974C54.9191 18.3785 60.6488 16.7568 66.811 16.7568C71.6759 16.7568 76.3245 17.8379 80.4326 19.6758C91.784 24.7568 99.6759 36.0001 100.108 49.0812C100 49.4055 100 49.7298 100 50.0541Z" fill="#4666E7"/>
<path d="M80.4325 19.6757C76.3244 17.8378 71.6757 16.7568 66.8109 16.7568C60.7568 16.7568 55.0271 18.3784 50.0541 21.2973C44.1082 24.7568 39.2433 30.0541 36.4325 36.4324C34.5947 40.5405 33.5136 45.1892 33.5136 50.054C33.5136 54.9189 34.5947 59.5676 36.4325 63.6757C30.0541 60.8649 24.7568 56 21.2974 50.054C18.3785 45.1892 16.7568 39.4595 16.7568 33.2973C16.7568 28.4324 17.8379 23.7838 19.6758 19.6757C24.7568 8.32432 35.892 0.432432 49.0812 0C49.4055 0 49.7298 0 50.0541 0C50.3785 0 50.7028 0 51.0271 0C64.1082 0.432432 75.3514 8.32432 80.4325 19.6757Z" fill="url(#paint0_linear_8004_1501)"/>
<path d="M83.243 66.7026C83.243 71.5675 82.162 76.2161 80.3241 80.3242C75.2431 91.6756 63.9998 99.5675 50.9187 99.9999C50.5944 99.9999 50.2701 99.9999 49.9458 99.9999C49.6214 99.9999 49.2971 99.9999 48.9728 99.9999C35.8917 99.6756 24.6485 91.6756 19.5674 80.3242C23.7836 82.2702 28.4322 83.2431 33.2971 83.2431C39.3512 83.2431 45.0809 81.6215 50.0539 78.7026C55.9998 75.2431 60.8647 69.9458 63.6755 63.5675C65.5133 59.4594 66.5944 54.8107 66.5944 49.9458C66.5944 45.081 65.5133 40.4323 63.6755 36.3242C70.0539 39.135 75.3512 43.9999 78.8106 49.9458C81.6214 54.9188 83.243 60.6485 83.243 66.7026Z" fill="url(#paint1_linear_8004_1501)"/>
</g>
<defs>
<linearGradient id="paint0_linear_8004_1501" x1="48.5947" y1="0" x2="48.5947" y2="63.6757" gradientUnits="userSpaceOnUse">
<stop stop-color="#7692FE"/>
<stop offset="1" stop-color="#3E63F0"/>
</linearGradient>
<linearGradient id="paint1_linear_8004_1501" x1="51.4052" y1="36.3242" x2="51.4052" y2="99.9999" gradientUnits="userSpaceOnUse">
<stop stop-color="#7692FE"/>
<stop offset="1" stop-color="#3E63F0"/>
</linearGradient>
<clipPath id="clip0_8004_1501">
<rect width="100" height="100" fill="white"/>
</clipPath>
</defs>
</svg>
