<svg width="666" height="495" viewBox="0 0 666 495" fill="none" xmlns="http://www.w3.org/2000/svg">
<g clip-path="url(#clip0_8004_1513)">
<g opacity="0.3">
<path d="M663.918 504.435C706.275 399.82 645.141 346.415 632.219 307.534C619.311 268.64 711.712 32.0561 475.803 14.285C364.543 5.90379 357.303 55.0071 309.782 45.2639C270.254 37.1694 216.948 -1.63603 179.313 13.4483C126.167 34.7491 95.3657 75.2373 99.529 116.695C103.02 151.32 125.424 183.449 120.886 217.948C116.436 251.746 87.747 275.856 60.3991 294.932C33.0637 314.007 26.9969 334.186 16.4246 366.506C6.05664 398.242 18.1809 434.13 39.1305 459.69C39.8863 460.612 40.653 461.523 41.429 462.424C65.0952 489.902 98.7298 504.982 133.588 504.948L663.918 504.435Z" fill="#D2E4FF"/>
</g>
<path d="M180.76 350.898H128.947C128.677 350.898 128.459 350.68 128.459 350.41C128.459 350.14 128.677 349.922 128.947 349.922H180.759C181.028 349.922 181.246 350.14 181.246 350.41C181.248 350.68 181.028 350.898 180.76 350.898Z" fill="#C6E2FA"/>
<path d="M180.76 376.593H128.947C128.677 376.593 128.459 376.375 128.459 376.105C128.459 375.836 128.677 375.617 128.947 375.617H180.759C181.028 375.617 181.246 375.836 181.246 376.105C181.246 376.375 181.028 376.593 180.76 376.593Z" fill="#C6E2FA"/>
<path d="M171.35 363.745H98.0602C97.7907 363.745 97.5723 363.526 97.5723 363.257C97.5723 362.987 97.7907 362.769 98.0602 362.769H171.35C171.619 362.769 171.837 362.987 171.837 363.257C171.837 363.526 171.619 363.745 171.35 363.745Z" fill="#C6E2FA"/>
<path d="M139.609 350.898C139.339 350.898 139.121 350.679 139.121 350.41V339.489C139.121 339.219 139.339 339.001 139.609 339.001C139.878 339.001 140.097 339.219 140.097 339.489V350.41C140.097 350.679 139.878 350.898 139.609 350.898Z" fill="#C6E2FA"/>
<path d="M157.827 363.745C157.557 363.745 157.339 363.526 157.339 363.257V350.41C157.339 350.14 157.557 349.922 157.827 349.922C158.096 349.922 158.315 350.14 158.315 350.41V363.257C158.315 363.526 158.096 363.745 157.827 363.745Z" fill="#C6E2FA"/>
<path d="M143.967 376.164C143.698 376.164 143.479 375.945 143.479 375.676V363.257C143.479 362.987 143.698 362.769 143.967 362.769C144.237 362.769 144.455 362.987 144.455 363.257V375.676C144.455 375.945 144.237 376.164 143.967 376.164Z" fill="#C6E2FA"/>
<path d="M560.614 191.771H558.635V190.47H560.614C561.629 190.47 562.626 190.31 563.579 189.994L563.988 191.229C562.903 191.588 561.768 191.771 560.614 191.771ZM553.432 191.771H548.23V190.47H553.432V191.771ZM543.026 191.771H537.823V190.47H543.026V191.771ZM532.62 191.771H527.418V190.47H532.62V191.771ZM568.574 188.231L567.609 187.358C568.704 186.147 569.466 184.667 569.814 183.082L571.084 183.361C570.686 185.167 569.819 186.852 568.574 188.231ZM571.334 178.034H570.033V172.829H571.334V178.034ZM571.334 167.623H570.033V162.418H571.334V167.623ZM571.334 157.213H570.033V152.008H571.334V157.213ZM571.334 146.802H570.033V141.597H571.334V146.802ZM571.334 136.391H570.033V131.186H571.334V136.391ZM571.334 125.982H570.033V120.777H571.334V125.982ZM571.334 115.571H570.033V110.366H571.334V115.571ZM571.334 105.159H570.033V99.9548H571.334V105.159ZM571.334 94.7485H570.033V89.5437H571.334V94.7485ZM571.334 84.339H570.033V79.1343H571.334V84.339ZM571.334 73.928H570.033V69.5615H571.334V73.928Z" fill="white"/>
<path d="M517.835 77.2529V388.277C517.835 400.191 508.197 409.834 496.272 409.834H189.37C177.477 409.834 167.824 400.193 167.824 388.277V77.2529H517.835Z" fill="white"/>
<path d="M517.84 81.553V71.2566C517.84 59.3519 508.186 49.6924 496.285 49.6924H189.369C177.469 49.6924 167.813 59.3504 167.813 71.2566V81.553H517.84Z" fill="#2D6CE7"/>
<path d="M191.347 66.9951C191.347 69.6695 189.177 71.8264 186.531 71.8264C183.858 71.8264 181.702 69.6695 181.702 66.9951C181.702 64.3346 183.858 62.1777 186.531 62.1777C189.177 62.1777 191.347 64.3346 191.347 66.9951Z" fill="#F51616"/>
<path d="M218.458 66.9951C218.458 69.6695 216.288 71.8264 213.629 71.8264C210.969 71.8264 208.813 69.6695 208.813 66.9951C208.813 64.3346 210.969 62.1777 213.629 62.1777C216.288 62.1777 218.458 64.3346 218.458 66.9951Z" fill="#9ADF73"/>
<path d="M204.902 66.9951C204.902 69.6695 202.732 71.8264 200.073 71.8264C197.414 71.8264 195.258 69.6695 195.258 66.9951C195.258 64.3346 197.414 62.1777 200.073 62.1777C202.732 62.1777 204.902 64.3346 204.902 66.9951Z" fill="#F59A16"/>
<path d="M297.257 377.34H201.72C198.151 377.34 195.258 374.446 195.258 370.876V116.223C195.258 112.653 198.151 109.759 201.72 109.759H297.257C300.825 109.759 303.718 112.653 303.718 116.223V370.876C303.718 374.446 300.825 377.34 297.257 377.34Z" fill="#E1E5FF"/>
<path d="M287.262 168.713C287.262 183.331 278.972 196 266.843 202.286C261.645 204.985 255.744 206.502 249.488 206.502C243.24 206.502 237.341 204.984 232.141 202.286C220.003 196.008 211.714 183.33 211.714 168.713C211.714 147.846 228.629 130.923 249.488 130.923C270.354 130.923 287.262 147.845 287.262 168.713Z" fill="#007AFF"/>
<path d="M266.843 202.287C261.645 204.986 255.744 206.503 249.489 206.503C243.241 206.503 237.341 204.984 232.142 202.287C236.263 197.274 242.5 194.079 249.489 194.079C256.474 194.079 262.722 197.274 266.843 202.287Z" fill="#FF7545"/>
<path d="M254.849 195.014C254.849 196.001 243.914 196.001 243.914 195.014V188.153H254.849V195.014Z" fill="white"/>
<path d="M233.485 173.193C234.748 174.555 236.496 175.398 238.301 175.835C240.105 176.272 241.979 176.333 243.836 176.328C250.704 176.309 257.537 175.432 264.349 174.555C265.585 174.396 266.891 174.208 267.855 173.42C269.079 172.419 269.424 170.494 268.627 169.131C268.026 168.105 266.94 167.479 265.901 166.899C254.224 160.381 252.077 158.955 248.766 158.264C242.64 156.987 236.505 160.082 233.812 159.888C232.925 159.824 232.407 159.293 232.097 160.319C230.82 164.552 230.467 169.935 233.485 173.193Z" fill="#060405"/>
<path d="M262.232 173.122C262.232 181.988 256.569 191.121 249.586 191.121C242.6 191.121 236.939 181.988 236.939 173.122C236.938 154.261 262.232 154.261 262.232 173.122Z" fill="white"/>
<path d="M254.849 174.053C255.594 174.053 256.198 173.239 256.198 172.236C256.198 171.232 255.594 170.418 254.849 170.418C254.104 170.418 253.5 171.232 253.5 172.236C253.5 173.239 254.104 174.053 254.849 174.053Z" fill="#060405"/>
<path d="M244.322 174.053C245.067 174.053 245.671 173.239 245.671 172.236C245.671 171.232 245.067 170.418 244.322 170.418C243.577 170.418 242.973 171.232 242.973 172.236C242.973 173.239 243.577 174.053 244.322 174.053Z" fill="#060405"/>
<path d="M249.457 186.028C248.292 186.028 247.138 185.67 246.18 185.004C245.884 184.799 245.811 184.393 246.015 184.099C246.22 183.803 246.624 183.73 246.92 183.934C247.728 184.495 248.71 184.776 249.695 184.72C250.677 184.666 251.627 184.282 252.369 183.635C252.64 183.4 253.05 183.428 253.287 183.699C253.523 183.97 253.495 184.381 253.224 184.616C252.191 185.516 250.843 186.028 249.457 186.028Z" fill="#060405"/>
<path d="M233.484 165.948C235 167.255 237.079 167.97 239.134 167.889C241.298 167.804 243.328 166.89 245.47 166.591C252.775 165.571 259.481 171.743 266.835 171.111C271.895 170.675 273.171 166.904 271.48 165.038C270.476 163.932 268.601 163.684 267.833 162.423C266.073 159.534 271.299 156.97 270.47 153.964C270.109 152.656 268.674 151.849 267.267 151.582C264.941 151.141 260.788 151.909 259.43 149.277C258.05 146.602 261.4 143.934 260.83 141.154C260.533 139.701 259.17 138.591 257.669 138.153C253.936 137.061 244.358 139.267 237.908 145.935C235.812 148.101 234.136 150.619 232.953 153.327C230.876 158.078 229.586 162.585 233.484 165.948Z" fill="#060405"/>
<path d="M248.385 179.172C248.373 178.532 248.531 177.942 248.725 177.124C249.003 175.807 248.951 174.428 248.573 173.135C248.472 172.79 248.669 172.429 249.014 172.328C249.361 172.227 249.721 172.424 249.821 172.77C250.26 174.268 250.322 175.867 249.998 177.395C249.86 178.044 249.676 178.607 249.686 179.149C249.694 179.547 249.854 180.02 250.191 180.173C250.518 180.322 250.661 180.709 250.512 181.035C250.085 181.975 248.423 181.016 248.385 179.172Z" fill="#060405"/>
<path d="M287.993 244.741H213.354C211.861 244.741 210.651 243.53 210.651 242.037V223.483C210.651 221.989 211.861 220.779 213.354 220.779H287.993C289.486 220.779 290.695 221.989 290.695 223.483V242.037C290.695 243.53 289.486 244.741 287.993 244.741Z" fill="white"/>
<path d="M288.832 257.001H210.651V261.679H288.832V257.001Z" fill="white"/>
<path d="M288.832 274.001H210.651V278.679H288.832V274.001Z" fill="white"/>
<path d="M288.832 291.001H210.651V295.679H288.832V291.001Z" fill="white"/>
<path d="M288.832 308.001H210.651V312.679H288.832V308.001Z" fill="white"/>
<path d="M239.903 320.136H210.427V324.814H239.903V320.136Z" fill="white"/>
<path d="M288.607 320.136H247.607V324.814H288.607V320.136Z" fill="white"/>
<path d="M260.586 336.627H210.427V341.305H260.586V336.627Z" fill="white"/>
<path d="M288.606 336.627H265.451V341.305H288.606V336.627Z" fill="white"/>
<path d="M229.716 353.116H210.427V357.794H229.716V353.116Z" fill="white"/>
<path d="M257.388 353.116H236.227V357.794H257.388V353.116Z" fill="white"/>
<g opacity="0.08">
<path d="M517.835 113.41V367.167H334.32C328.519 367.167 323.823 362.469 323.823 356.666V123.911C323.823 118.108 328.519 113.41 334.32 113.41H517.835Z" fill="black"/>
</g>
<path d="M527.718 359.637H340.458C335.547 359.637 331.564 355.653 331.564 350.74V114.782C331.564 109.869 335.547 105.885 340.458 105.885H527.718C532.63 105.885 536.612 109.869 536.612 114.782V350.738C536.612 355.653 532.631 359.637 527.718 359.637Z" fill="#387BFF"/>
<path d="M470.17 144.656V196.92C470.17 200.876 466.966 204.052 463.011 204.052H405.168C401.214 204.052 398.01 200.876 398.01 196.92V144.656C398.01 140.7 401.214 137.494 405.168 137.494H463.011C466.964 137.493 470.17 140.7 470.17 144.656Z" fill="white"/>
<path d="M436.675 168.712C440.922 167.709 443.552 163.452 442.549 159.204C441.546 154.956 437.291 152.325 433.044 153.328C428.798 154.331 426.168 158.588 427.171 162.837C428.174 167.085 432.429 169.716 436.675 168.712Z" fill="#F59A16"/>
<path d="M418.601 188.401H449.561C450.459 188.401 451.215 187.55 450.932 186.652C448.852 179.323 442.141 173.884 434.105 173.884C426.07 173.884 419.311 179.321 417.231 186.652C416.994 187.549 417.703 188.401 418.601 188.401Z" fill="#F59A16"/>
<path d="M427.601 228.313V240.627C427.601 242.898 425.759 244.742 423.487 244.742H363.005C360.734 244.742 358.893 242.9 358.893 240.627V228.313C358.893 226.042 360.734 224.199 363.005 224.199H423.487C425.759 224.199 427.601 226.042 427.601 228.313Z" fill="white"/>
<path d="M510.64 258.287V270.601C510.64 272.872 508.798 274.716 506.526 274.716H363.005C360.734 274.716 358.893 272.874 358.893 270.601V258.287C358.893 256.015 360.734 254.173 363.005 254.173H506.526C508.798 254.173 510.64 256.015 510.64 258.287Z" fill="white"/>
<path d="M510.64 287.752V300.065C510.64 302.337 508.798 304.181 506.526 304.181H363.005C360.734 304.181 358.893 302.338 358.893 300.065V287.752C358.893 285.48 360.734 283.638 363.005 283.638H506.526C508.798 283.636 510.64 285.478 510.64 287.752Z" fill="white"/>
<path d="M509.285 228.313V240.627C509.285 242.898 507.444 244.742 505.171 244.742H444.689C442.419 244.742 440.577 242.9 440.577 240.627V228.313C440.577 226.042 442.419 224.199 444.689 224.199H505.171C507.444 224.199 509.285 226.042 509.285 228.313Z" fill="white"/>
<path d="M469.12 318.658V330.972C469.12 333.243 467.279 335.087 465.007 335.087H404.526C402.256 335.087 400.414 333.245 400.414 330.972V318.658C400.414 316.386 402.256 314.544 404.526 314.544H465.007C467.279 314.544 469.12 316.386 469.12 318.658Z" fill="white"/>
<path d="M382.566 231.368H364.135V233.333H382.566V231.368Z" fill="#BDD6FF"/>
<path d="M395.304 235.606H364.135V237.573H395.304V235.606Z" fill="#BDD6FF"/>
<path d="M463.68 231.368H445.249V233.333H463.68V231.368Z" fill="#BDD6FF"/>
<path d="M476.418 235.606H445.249V237.573H476.418V235.606Z" fill="#BDD6FF"/>
<path d="M401.663 259.377H364.135V261.342H401.663V259.377Z" fill="#BDD6FF"/>
<path d="M427.6 263.613H364.135V265.58H427.6V263.613Z" fill="#BDD6FF"/>
<path d="M401.663 287.386H364.135V289.35H401.663V287.386Z" fill="#BDD6FF"/>
<path d="M427.6 291.622H364.135V293.588H427.6V291.622Z" fill="#BDD6FF"/>
<path d="M423.131 324.809C423.131 326.148 422.055 327.225 420.727 327.225C419.389 327.225 418.312 326.148 418.312 324.809C418.312 323.483 419.389 322.404 420.727 322.404C422.055 322.404 423.131 323.483 423.131 324.809Z" fill="#8D95FF"/>
<path d="M432.493 324.809C432.493 326.148 431.417 327.225 430.089 327.225C428.751 327.225 427.675 326.148 427.675 324.809C427.675 323.483 428.751 322.404 430.089 322.404C431.417 322.404 432.493 323.483 432.493 324.809Z" fill="#8D95FF"/>
<path d="M441.857 324.809C441.857 326.148 440.781 327.225 439.454 327.225C438.115 327.225 437.039 326.148 437.039 324.809C437.039 323.483 438.115 322.404 439.454 322.404C440.779 322.404 441.857 323.483 441.857 324.809Z" fill="#8D95FF"/>
<path d="M451.221 324.809C451.221 326.148 450.144 327.225 448.817 327.225C447.479 327.225 446.402 326.148 446.402 324.809C446.402 323.483 447.479 322.404 448.817 322.404C450.144 322.404 451.221 323.483 451.221 324.809Z" fill="#8D95FF"/>
<path d="M54.0754 487.22L72.7621 353.646L95.8878 487.22H113.315L119.85 307.037H34.0133C33.0809 309.067 30.0251 331.583 30.0808 352.807C30.2001 398.521 34.8621 469.495 36.6355 487.511L54.0754 487.22Z" fill="#66D3D8"/>
<path d="M54.8571 490.251V487.209H36.7141C36.4771 493.091 36.0109 504.181 35.873 504.181H65.397C66.3991 494.476 54.8571 490.251 54.8571 490.251Z" fill="#C5E0FF"/>
<path d="M114.047 490.251V487.209H95.9035C95.6665 493.091 95.2003 504.181 95.0625 504.181H124.586C125.589 494.476 114.047 490.251 114.047 490.251Z" fill="#C5E0FF"/>
<path d="M117.168 228.601C117.792 228.849 114.156 259.931 119.096 268.651C124.237 277.725 153.753 290.987 154.247 291.103C154.741 291.233 172.009 285.286 172.009 285.286L141.06 254.486L135.35 219.656L117.168 228.601Z" fill="#FCBBA4"/>
<path d="M110.135 193.36C110.135 193.36 123.537 196.596 141.795 227.465C134.988 235.386 123.028 238.461 110.397 240.906C110.397 240.906 100.345 218.977 100.636 218.197C100.927 217.418 110.135 193.36 110.135 193.36Z" fill="#8D95FF"/>
<path d="M123.186 321.359C123.186 330.211 30.793 328.937 28.9391 319.808C28.6169 231.79 28.7517 232.286 29.4641 226.919C31.4327 212.242 25.592 208.999 29.1621 203.763C30.6583 201.569 41.1052 193.344 47.7652 190.924C53.2032 188.947 64.7327 186.542 70.5161 186.395C78.6382 186.189 109.098 186.39 115.714 199.003C125.995 218.606 123.186 321.359 123.186 321.359Z" fill="#8D95FF"/>
<path d="M91.0001 366.591C107.201 350.384 107.2 324.107 91.0001 307.899C74.7997 291.692 48.5338 291.692 32.3334 307.899C16.133 324.107 16.133 350.384 32.3334 366.591C48.5337 382.798 74.7998 382.798 91.0001 366.591Z" fill="#F59A16"/>
<path d="M83.2118 327.173C88.7721 339.092 83.647 353.247 71.7349 358.808C59.8228 364.369 45.6634 359.218 40.103 347.3C34.5551 335.407 39.705 321.242 51.6171 315.681C63.5292 310.12 77.6639 315.281 83.2118 327.173Z" fill="white"/>
<path d="M221.267 251.086L230.192 270.216L93.8228 333.884L84.8984 314.753" fill="#F59A16"/>
<path d="M221.436 274.313L206.367 281.348L215.821 301.614L230.889 294.579L221.436 274.313Z" fill="#F59A16"/>
<path d="M198.55 284.997L183.481 292.032L192.935 312.298L208.004 305.263L198.55 284.997Z" fill="#F59A16"/>
<path d="M210.8 274.323L192.778 282.736L197.684 293.253L215.706 284.84L210.8 274.323Z" fill="#F59A16"/>
<path d="M52.5403 243.223L51.8465 270.664L103.83 295.172C103.83 295.172 124.944 294.545 124.865 299.178C124.787 303.563 117.039 302.742 116.532 302.663C117.52 303.079 135.581 315.553 122.346 320.826C111.488 325.152 97.6533 308.314 97.6533 308.314C97.6533 308.314 26.9582 298.849 21.195 288.869C16.5794 280.877 19.6229 252.909 20.735 243.223H52.5403Z" fill="#FCBBA4"/>
<path d="M55.0488 250.372C55.6204 239.791 52.992 230.161 50.3171 222.824C44.7708 207.608 29.0439 203.936 29.0439 203.936C29.0439 203.936 20.0668 213.129 18.0982 227.807C17.2495 234.143 15.8942 240.257 15.9593 248.345C25.8145 251.166 40.4867 252.789 55.0488 250.372Z" fill="#8D95FF"/>
<path d="M40.2736 252.196C31.7798 252.196 23.2224 251.1 15.7803 248.97L16.1381 247.719C27.6846 251.024 41.9556 251.801 54.4253 249.814C54.7924 241.52 53.2466 232.757 49.7076 223.047L50.9296 222.601C54.605 232.685 56.1646 241.78 55.7 250.408L55.6721 250.928L55.1579 251.014C50.3828 251.805 45.3398 252.196 40.2736 252.196Z" fill="#757BFF"/>
<path d="M78.9912 170.852C78.9912 170.852 81.855 181.996 85.0533 186.964C87.4602 190.702 82.9252 197.807 78.7852 199.975C72.0415 203.506 58.8563 187.559 58.8563 187.559L58.3281 146.819L78.9912 170.852Z" fill="#F2A07C"/>
<path d="M59.1447 142.23C59.4886 142.709 62.6683 175.39 82.3355 173.178C102.003 170.965 96.8806 130.316 88.1002 121.306C79.3183 112.295 61.3905 120.373 61.3905 120.373L55.5127 134.534L59.1447 142.23Z" fill="#FCBBA4"/>
<path d="M75.5848 144.449C76.3421 144.42 76.9225 143.522 76.8811 142.444C76.8397 141.365 76.1921 140.515 75.4348 140.544C74.6774 140.573 74.0971 141.471 74.1385 142.549C74.1799 143.628 74.8274 144.478 75.5848 144.449Z" fill="#060405"/>
<path d="M88.5848 144.341C89.3421 144.312 89.9225 143.414 89.8811 142.335C89.8397 141.257 89.1921 140.406 88.4348 140.436C87.6774 140.465 87.0971 141.362 87.1385 142.441C87.1799 143.519 87.8274 144.37 88.5848 144.341Z" fill="#060405"/>
<path d="M82.1042 154.914L81.288 153.901C81.8192 153.472 82.4511 153.424 83.145 153.336C83.5121 153.278 83.8234 153.119 83.8528 152.971C83.8916 152.773 83.5539 152.423 83.3061 152.167C81.2849 150.071 80.4237 146.921 81.0882 144.119L82.3536 144.42C81.7882 146.801 82.5208 149.479 84.2199 151.241C84.6629 151.699 85.2995 152.359 85.1291 153.224C84.985 153.949 84.319 154.471 83.3448 154.623C82.7299 154.701 82.3257 154.736 82.1042 154.914Z" fill="#060405"/>
<path d="M78.0797 164.606C76.9971 164.133 76.1266 163.233 75.6914 162.135L76.901 161.654C77.2062 162.424 77.8412 163.081 78.6001 163.411C79.3591 163.743 80.2729 163.762 81.0442 163.461L81.515 164.674C80.4138 165.103 79.1608 165.079 78.0797 164.606Z" fill="#060405"/>
<path d="M99.4017 126.752C98.587 127.254 97.7197 127.674 96.7393 128.023C88.9982 130.579 68.0486 125.787 67.4368 128.765C66.8173 131.692 65.5472 149.238 64.1982 147.075C61.6519 142.997 60.7133 136.26 60.5615 147.938C60.656 152.288 59.3503 168.862 59.3503 168.862C58.6162 166.83 54.8386 162.649 52.2381 158.227C47.6365 150.413 50.3408 129.708 50.3408 129.708C50.3408 129.708 45.0499 125.179 47.13 120.508C49.2039 115.799 82.7641 96.7585 89.6688 97.5348C96.2483 98.2739 92.6395 108.989 92.353 109.841C92.8935 109.14 97.9613 103.145 100.066 107.428C101.96 111.362 105.194 123.137 99.4017 126.752Z" fill="#060405"/>
<path d="M122.867 238.233L121.567 238.191C121.766 232.128 120.057 217.476 118.47 211.62L119.724 211.279C121.335 217.22 123.068 232.081 122.867 238.233Z" fill="#757BFF"/>
<path d="M621.392 201.878C621.392 201.878 624.766 192.695 625.293 184.912C625.293 184.912 618.611 187.11 615.831 181.547C613.413 176.709 626.239 132.428 635.071 132.533C643.902 132.639 650.631 162.51 650.631 162.51L642.851 186.595C642.851 186.595 642.205 197.387 647.364 202.615C652.523 207.843 633.197 207.422 633.197 207.422L621.392 201.878Z" fill="#FCBBA4"/>
<path d="M625.121 153.232C625.852 153.232 626.865 152.207 627.39 150.951C627.926 149.694 627.769 148.67 627.04 148.67C626.32 148.67 625.296 149.693 624.771 150.951C624.243 152.207 624.399 153.232 625.121 153.232Z" fill="#060405"/>
<path d="M620.022 169.969C618.747 169.969 617.488 169.18 616.971 168.009L618.16 167.483C618.502 168.261 619.429 168.771 620.271 168.65L620.46 169.938C620.315 169.958 620.169 169.969 620.022 169.969Z" fill="#060405"/>
<path d="M580.299 484.232C579.81 470.69 581.007 308.728 581.007 308.728L620.555 319.507L602.502 484.232H580.299Z" fill="#34C3C9"/>
<path d="M644.855 484.989L622.621 484.232C614.18 460.915 587.154 310.098 587.154 310.098C587.154 310.098 647.062 304.486 647.894 311.442C648.855 319.484 642.198 370.198 641.992 414.213C641.813 452.63 645.034 477.078 644.855 484.989Z" fill="#66D3D8"/>
<path d="M604.353 207.743C610.283 202.014 644.231 195.058 663.658 209.992C681.76 223.91 653.208 316.325 653.208 316.325C653.051 323.933 576.78 322.363 576.937 314.756C576.937 314.756 584.494 226.927 604.353 207.743Z" fill="#F59A16"/>
<path d="M515.155 249.632C515.155 249.632 555.892 286.021 568.494 284.711C584.21 283.078 604.408 254.572 605.131 254.397L581.643 235.411L563.347 256.246L521.809 236.564C521.809 236.564 520.893 224.893 518.647 225.97C516.402 227.047 515.155 232.287 515.155 232.287C515.155 232.287 499.064 212.572 496.445 217.563C493.826 222.553 505.8 233.036 505.8 233.036C505.8 233.036 498.441 243.891 504.428 248.01C510.414 252.127 515.155 249.632 515.155 249.632Z" fill="#FCBBA4"/>
<path d="M605.658 206.908C597.858 210.942 583.725 223.447 570.76 241.566C568.985 244.793 598.689 263.585 601.212 261.825L625.905 242.629" fill="#F59A16"/>
<path d="M647.726 188.302C647.726 188.302 633.035 183.166 635.174 171.466C637.313 159.765 643.52 154.201 641.343 151.347C639.167 148.493 636.175 150.205 634.961 153.344C633.748 156.484 633.079 161.763 633.079 161.763H629.041C629.041 161.763 630.325 146.638 634.033 145.068C634.033 145.068 620.019 130.122 630.183 122.666C637.281 117.458 640.451 124.093 640.451 124.093C640.451 124.093 648.581 111.536 656.284 117.387C663.986 123.238 656.853 137.933 656.853 137.933C656.853 137.933 666.41 138.218 667.836 146.922C669.263 155.625 651.606 165.107 650.629 172.319C649.29 182.197 647.726 188.302 647.726 188.302Z" fill="#060405"/>
<path d="M622.62 487.953V484.231H644.822C645.112 491.429 645.682 505.001 645.852 505.001H609.724C608.496 493.124 622.62 487.953 622.62 487.953Z" fill="#C5E0FF"/>
<path d="M580.298 487.953V484.231H602.501C602.791 491.429 603.361 505.001 603.531 505.001H567.403C566.175 493.124 580.298 487.953 580.298 487.953Z" fill="#C5E0FF"/>
<path d="M600.255 262.918C599.899 262.918 599.605 262.757 599.424 262.656C589.231 257.03 578.691 251.213 570.274 242.758L571.196 241.839C579.481 250.163 589.938 255.935 600.051 261.516C600.102 261.544 600.221 261.61 600.265 261.617C600.244 261.606 600.316 261.527 600.416 261.392C605.464 254.69 610.284 247.682 614.738 240.561L615.841 241.252C611.367 248.403 606.525 255.443 601.456 262.174C601.291 262.393 600.949 262.845 600.385 262.909C600.342 262.917 600.297 262.918 600.255 262.918Z" fill="#DA8100"/>
<path d="M570.684 106.784C530.348 95.2244 531.621 32.0006 531.621 32.0006C546.895 32.6405 545.666 19.0437 545.666 19.0437C562.343 16.7133 579.023 16.7133 595.701 19.0437C595.701 19.0437 594.473 32.6405 609.746 32.0006C609.747 32.0006 611.02 95.2259 570.684 106.784Z" fill="#007AFF"/>
<path d="M570.684 97.9825C544.114 89.3193 540.284 51.3258 539.746 38.9268C546.617 37.867 550.947 33.2836 552.083 26.9833C564.05 25.5733 576.402 25.4648 589.286 26.9833C590.413 33.2355 594.705 37.8592 601.617 38.9268C601.066 51.3274 597.2 89.3348 570.684 97.9825Z" fill="white"/>
<path d="M570.681 73.6024C578.684 73.6024 585.172 67.1119 585.172 59.1054C585.172 51.0989 578.684 44.6084 570.681 44.6084C562.678 44.6084 556.19 51.0989 556.19 59.1054C556.19 67.1119 562.678 73.6024 570.681 73.6024Z" fill="#F59A16"/>
<path d="M568.931 64.9533C568.586 64.9533 568.256 64.8169 568.011 64.5721L564.517 61.0765C564.009 60.5682 564.009 59.7439 564.517 59.2357C565.025 58.7274 565.849 58.7274 566.357 59.2357L568.931 61.8109L576.526 54.2122C577.034 53.704 577.858 53.704 578.366 54.2122C578.874 54.7205 578.874 55.5448 578.366 56.053L569.851 64.5706C569.608 64.8154 569.276 64.9533 568.931 64.9533Z" fill="white"/>
<path d="M494.987 441.216C494.854 441.216 494.72 441.175 494.604 441.09C494.315 440.878 494.25 440.472 494.462 440.181C494.71 439.84 500.665 431.875 509.078 431.861C509.438 431.863 509.729 432.154 509.727 432.514C509.726 432.872 509.434 433.163 509.077 433.163C509.063 433.163 509.052 433.163 509.038 433.163C501.275 433.163 495.569 440.868 495.512 440.948C495.385 441.123 495.188 441.216 494.987 441.216Z" fill="#060405"/>
<path d="M488.274 439.829C489.921 438.061 491.909 436.655 493.715 435.052C497.648 431.559 500.71 427.094 502.553 422.168C503.427 419.833 504.032 417.295 503.524 414.856C503.016 412.415 501.145 410.127 498.676 409.79C496.245 409.459 494.007 410.983 491.844 412.146C489.682 413.308 486.811 414.087 484.935 412.504C483.735 411.489 483.36 409.824 483.055 408.281C481.6 400.932 480.146 393.583 478.692 386.233C478.016 382.818 476.923 378.878 473.692 377.586C467.904 375.272 458.01 384.094 458.263 395.309C458.397 401.325 461.51 407.203 466.409 410.694C467.92 411.769 469.619 412.663 470.742 414.138C471.864 415.613 472.174 417.947 470.811 419.203C469.148 420.737 466.43 419.69 464.255 420.316C460.473 421.405 458.047 428.693 466.902 433.312C469.428 434.63 472.19 435.465 474.674 436.861C479.816 439.751 483.552 445.232 484.927 450.852C484.926 450.85 485.294 443.027 488.274 439.829Z" fill="#9ADF73"/>
<path d="M487.443 464.151C487.136 464.151 486.864 463.934 486.805 463.623C486.699 463.073 476.235 408.557 471.279 399.905C471.1 399.593 471.208 399.195 471.519 399.017C471.829 398.839 472.229 398.946 472.407 399.259C477.471 408.098 487.65 461.127 488.083 463.379C488.158 463.781 487.85 464.151 487.443 464.151Z" fill="white"/>
<path d="M482.262 438.806C482.242 438.806 482.222 438.804 482.202 438.803C481.844 438.769 481.581 438.452 481.613 438.095C481.655 437.644 482.719 427.005 490.505 422.387C490.816 422.203 491.214 422.307 491.396 422.615C491.578 422.925 491.476 423.323 491.168 423.506C483.96 427.781 482.917 438.108 482.908 438.214C482.877 438.553 482.593 438.806 482.262 438.806Z" fill="white"/>
<path d="M480.797 432.143C480.541 432.143 480.298 431.991 480.194 431.74C480.163 431.663 476.957 424.059 469.828 424.059C468.967 424.059 468.968 422.758 469.828 422.758C477.84 422.758 481.257 430.9 481.399 431.246C481.536 431.579 481.376 431.957 481.043 432.093C480.963 432.128 480.879 432.143 480.797 432.143Z" fill="white"/>
<path d="M498.992 444.765C501.148 444.139 503.405 443.964 505.61 443.544C510.413 442.63 514.984 440.526 518.802 437.47C520.611 436.023 522.304 434.286 523.059 432.095C523.815 429.904 523.412 427.185 521.602 425.74C519.818 424.316 517.305 424.467 515.026 424.364C512.746 424.262 510.082 423.515 509.34 421.357C508.864 419.975 509.358 418.467 509.849 417.09C512.188 410.529 514.528 403.969 516.867 397.408C517.954 394.36 518.96 390.692 516.994 388.122C513.475 383.517 501.376 385.843 496.235 394.916C493.478 399.783 493.164 405.96 495.411 411.082C496.103 412.661 497.036 414.184 497.229 415.898C497.423 417.61 496.559 419.621 494.872 419.975C492.814 420.405 491.142 418.275 489.109 417.737C486.547 417.062 483.883 419.251 483.276 421.831C482.669 424.411 483.643 427.118 485.032 429.374C486.422 431.63 488.228 433.615 489.546 435.913C492.273 440.671 492.646 446.827 491.068 451.969C491.068 451.969 495.089 445.899 498.992 444.765Z" fill="#9ADF73"/>
<path d="M486.831 463.88C486.493 463.758 486.318 463.384 486.442 463.046C486.62 462.557 504.227 414.055 504.393 404.793C504.399 404.434 504.674 404.152 505.055 404.153C505.414 404.16 505.7 404.455 505.694 404.815C505.525 414.293 488.394 461.486 487.664 463.491C487.54 463.83 487.165 464.002 486.831 463.88Z" fill="white"/>
<path d="M496.993 435.197C496.96 435.197 496.928 435.195 496.895 435.189C496.54 435.136 496.296 434.805 496.348 434.45C496.359 434.374 497.417 426.805 491.751 423.422C491.443 423.238 491.342 422.838 491.527 422.53C491.711 422.221 492.108 422.121 492.419 422.305C498.842 426.14 497.688 434.298 497.635 434.644C497.586 434.966 497.309 435.197 496.993 435.197Z" fill="white"/>
<path d="M497.744 494.205L479.308 494.157C478.197 494.154 477.251 493.349 477.073 492.252L469.643 460.16C469.419 458.776 470.489 457.52 471.891 457.524L505.423 457.611C506.825 457.614 507.889 458.876 507.656 460.259L499.99 492.312C499.804 493.406 498.854 494.209 497.744 494.205Z" fill="white"/>
<path d="M349.999 437.757H298.187C297.918 437.757 297.699 437.539 297.699 437.269C297.699 437 297.918 436.781 298.187 436.781H349.999C350.268 436.781 350.487 437 350.487 437.269C350.487 437.539 350.268 437.757 349.999 437.757Z" fill="white" fill-opacity="0.3"/>
<path d="M349.999 463.453H298.187C297.918 463.453 297.699 463.234 297.699 462.965C297.699 462.695 297.918 462.477 298.187 462.477H349.999C350.268 462.477 350.487 462.695 350.487 462.965C350.487 463.234 350.268 463.453 349.999 463.453Z" fill="white" fill-opacity="0.3"/>
<path d="M340.588 450.606H267.298C267.029 450.606 266.811 450.388 266.811 450.118C266.811 449.848 267.029 449.63 267.298 449.63H340.588C340.857 449.63 341.076 449.848 341.076 450.118C341.076 450.388 340.857 450.606 340.588 450.606Z" fill="white" fill-opacity="0.3"/>
<path d="M308.847 437.757C308.578 437.757 308.359 437.539 308.359 437.269V426.348C308.359 426.079 308.578 425.86 308.847 425.86C309.117 425.86 309.335 426.079 309.335 426.348V437.269C309.335 437.539 309.117 437.757 308.847 437.757Z" fill="white" fill-opacity="0.3"/>
<path d="M327.065 450.606C326.796 450.606 326.577 450.387 326.577 450.118V437.269C326.577 437 326.796 436.781 327.065 436.781C327.335 436.781 327.553 437 327.553 437.269V450.118C327.553 450.387 327.335 450.606 327.065 450.606Z" fill="white" fill-opacity="0.3"/>
<path d="M313.206 463.023C312.936 463.023 312.718 462.805 312.718 462.535V450.116C312.718 449.846 312.936 449.628 313.206 449.628C313.475 449.628 313.694 449.846 313.694 450.116V462.535C313.694 462.805 313.475 463.023 313.206 463.023Z" fill="white" fill-opacity="0.3"/>
<path d="M476.618 17.9508H442.047C441.777 17.9508 441.559 17.7323 441.559 17.4627C441.559 17.1931 441.777 16.9746 442.047 16.9746H476.618C476.888 16.9746 477.106 17.1931 477.106 17.4627C477.106 17.7323 476.888 17.9508 476.618 17.9508Z" fill="white" fill-opacity="0.3"/>
<path d="M476.618 35.0963H442.047C441.777 35.0963 441.559 34.8778 441.559 34.6082C441.559 34.3386 441.777 34.1201 442.047 34.1201H476.618C476.888 34.1201 477.106 34.3386 477.106 34.6082C477.106 34.8778 476.888 35.0963 476.618 35.0963Z" fill="white" fill-opacity="0.3"/>
<path d="M470.339 26.5231H421.439C421.17 26.5231 420.951 26.3046 420.951 26.035C420.951 25.7654 421.17 25.5469 421.439 25.5469H470.34C470.61 25.5469 470.828 25.7654 470.828 26.035C470.827 26.3046 470.608 26.5231 470.339 26.5231Z" fill="white" fill-opacity="0.3"/>
<path d="M449.162 17.9509C448.892 17.9509 448.674 17.7324 448.674 17.4628V10.1756C448.674 9.90598 448.892 9.6875 449.162 9.6875C449.431 9.6875 449.65 9.90598 449.65 10.1756V17.4628C449.65 17.7324 449.431 17.9509 449.162 17.9509Z" fill="white" fill-opacity="0.3"/>
<path d="M461.317 26.5226C461.047 26.5226 460.829 26.3041 460.829 26.0345V17.4627C460.829 17.1931 461.047 16.9746 461.317 16.9746C461.586 16.9746 461.805 17.1931 461.805 17.4627V26.0345C461.805 26.3041 461.586 26.5226 461.317 26.5226Z" fill="white" fill-opacity="0.3"/>
<path d="M452.069 34.8097C451.799 34.8097 451.581 34.5912 451.581 34.3216V26.035C451.581 25.7654 451.799 25.5469 452.069 25.5469C452.338 25.5469 452.557 25.7654 452.557 26.035V34.3216C452.557 34.5912 452.338 34.8097 452.069 34.8097Z" fill="white" fill-opacity="0.3"/>
<path d="M150.686 114.819H116.115C115.845 114.819 115.627 114.6 115.627 114.331C115.627 114.061 115.845 113.843 116.115 113.843H150.686C150.956 113.843 151.174 114.061 151.174 114.331C151.174 114.6 150.956 114.819 150.686 114.819Z" fill="white" fill-opacity="0.3"/>
<path d="M150.686 131.963H116.115C115.845 131.963 115.627 131.744 115.627 131.474C115.627 131.205 115.845 130.986 116.115 130.986H150.686C150.956 130.986 151.174 131.205 151.174 131.474C151.174 131.744 150.956 131.963 150.686 131.963Z" fill="white" fill-opacity="0.3"/>
<path d="M144.408 123.391H95.5064C95.2369 123.391 95.0186 123.173 95.0186 122.903C95.0186 122.634 95.2369 122.415 95.5064 122.415H144.408C144.677 122.415 144.896 122.634 144.896 122.903C144.896 123.173 144.677 123.391 144.408 123.391Z" fill="white" fill-opacity="0.3"/>
<path d="M123.231 114.819C122.962 114.819 122.743 114.601 122.743 114.331V107.044C122.743 106.774 122.962 106.556 123.231 106.556C123.501 106.556 123.719 106.774 123.719 107.044V114.331C123.719 114.601 123.501 114.819 123.231 114.819Z" fill="white" fill-opacity="0.3"/>
<path d="M135.384 123.391C135.115 123.391 134.896 123.172 134.896 122.903V114.331C134.896 114.061 135.115 113.843 135.384 113.843C135.654 113.843 135.872 114.061 135.872 114.331V122.903C135.872 123.172 135.654 123.391 135.384 123.391Z" fill="white" fill-opacity="0.3"/>
<path d="M126.138 131.678C125.869 131.678 125.65 131.459 125.65 131.19V122.903C125.65 122.634 125.869 122.415 126.138 122.415C126.408 122.415 126.626 122.634 126.626 122.903V131.19C126.626 131.459 126.408 131.678 126.138 131.678Z" fill="white" fill-opacity="0.3"/>
</g>
<defs>
<clipPath id="clip0_8004_1513">
<rect width="666" height="495" fill="white"/>
</clipPath>
</defs>
</svg>
