<svg width="12" height="12" viewBox="0 0 12 12" fill="none" xmlns="http://www.w3.org/2000/svg">
<g clip-path="url(#clip0_8004_387)">
<path d="M8.26074 5.15625C8.26074 4.89736 8.05088 4.6875 7.79199 4.6875H2.96387C2.70498 4.6875 2.49512 4.89736 2.49512 5.15625C2.49512 5.41514 2.70498 5.625 2.96387 5.625H7.79199C8.05088 5.625 8.26074 5.41514 8.26074 5.15625Z" fill="#636364"/>
<path d="M2.96387 6.5625C2.70498 6.5625 2.49512 6.77236 2.49512 7.03125C2.49512 7.29014 2.70498 7.5 2.96387 7.5H5.89616C6.15505 7.5 6.36491 7.29014 6.36491 7.03125C6.36491 6.77236 6.15505 6.5625 5.89616 6.5625H2.96387Z" fill="#636364"/>
<path d="M4.06527 11.0625H2.49756C1.98062 11.0625 1.56006 10.6419 1.56006 10.125V1.875C1.56006 1.35806 1.98062 0.9375 2.49756 0.9375H8.26058C8.77752 0.9375 9.19808 1.35806 9.19808 1.875V4.75781C9.19808 5.0167 9.40794 5.22656 9.66683 5.22656C9.92572 5.22656 10.1356 5.0167 10.1356 4.75781V1.875C10.1356 0.841125 9.29446 0 8.26058 0H2.49756C1.46368 0 0.622559 0.841125 0.622559 1.875V10.125C0.622559 11.1589 1.46368 12 2.49756 12H4.06527C4.32416 12 4.53402 11.7901 4.53402 11.5312C4.53402 11.2724 4.32416 11.0625 4.06527 11.0625Z" fill="#636364"/>
<path d="M10.9661 6.78725C10.4178 6.23896 9.52564 6.23893 8.97769 6.78688L6.40419 9.35469C6.34953 9.40923 6.30922 9.4764 6.28677 9.55028L5.7263 11.3954C5.67662 11.559 5.71991 11.7366 5.8393 11.859C5.92873 11.9507 6.05023 12.0004 6.17485 12.0004C6.21655 12.0004 6.25864 11.9948 6.29996 11.9834L8.19195 11.4593C8.26981 11.4377 8.34078 11.3964 8.39797 11.3393L10.9661 8.77602C11.5144 8.22772 11.5144 7.3356 10.9661 6.78725ZM7.82291 10.5887L6.87106 10.8524L7.14962 9.93531L8.88608 8.20269L9.54912 8.86574L7.82291 10.5887ZM10.3035 8.11283L10.2127 8.20347L9.54976 7.54054L9.64027 7.45021C9.82304 7.26744 10.1204 7.26744 10.3032 7.45021C10.4859 7.63297 10.4859 7.93035 10.3035 8.11283Z" fill="#636364"/>
<path d="M7.79199 2.8125H2.96387C2.70498 2.8125 2.49512 3.02236 2.49512 3.28125C2.49512 3.54014 2.70498 3.75 2.96387 3.75H7.79199C8.05088 3.75 8.26074 3.54014 8.26074 3.28125C8.26074 3.02236 8.05088 2.8125 7.79199 2.8125Z" fill="#636364"/>
</g>
<defs>
<clipPath id="clip0_8004_387">
<rect width="12" height="12" fill="white"/>
</clipPath>
</defs>
</svg>
