<svg width="12" height="12" viewBox="0 0 12 12" fill="none" xmlns="http://www.w3.org/2000/svg">
<path d="M10.8732 7.95662C9.91837 8.34057 8.87179 8.43545 7.86353 8.22946C6.85526 8.02347 5.92976 7.5257 5.20209 6.79802C4.47441 6.07034 3.97663 5.14485 3.77065 4.13658C3.56466 3.12831 3.65953 2.08174 4.04349 1.12695C2.91282 1.58238 1.97578 2.41693 1.39301 3.48754C0.810238 4.55815 0.61803 5.79814 0.849335 6.99493C1.08064 8.19173 1.72105 9.2708 2.66078 10.0472C3.60052 10.8235 4.78104 11.2488 5.99999 11.2501C7.04819 11.2502 8.07242 10.9365 8.94088 10.3496C9.80935 9.76263 10.4823 8.92923 10.8732 7.95662Z" stroke="#313236" stroke-linecap="round" stroke-linejoin="round"/>
</svg>
